<svg width="21" height="20" viewBox="0 0 21 20" fill="none" xmlns="http://www.w3.org/2000/svg">
<path d="M17.9947 16.375C17.9947 16.5408 17.9289 16.6997 17.8117 16.8169C17.6945 16.9342 17.5355 17 17.3697 17H6.11972C5.95396 17 5.79499 16.9342 5.67778 16.8169C5.56057 16.6997 5.49472 16.5408 5.49472 16.375C5.49472 16.2092 5.56057 16.0503 5.67778 15.9331C5.79499 15.8158 5.95396 15.75 6.11972 15.75H17.3697C17.5355 15.75 17.6945 15.8158 17.8117 15.9331C17.9289 16.0503 17.9947 16.2092 17.9947 16.375ZM19.8697 10.125V12C19.8697 12.1658 19.8039 12.3247 19.6867 12.4419C19.5695 12.5592 19.4105 12.625 19.2447 12.625H5.26581C4.59298 12.6281 3.93735 12.4126 3.39757 12.0109C2.8578 11.6092 2.46309 11.043 2.27284 10.3977L1.17362 6.73438C1.11762 6.54781 1.106 6.35074 1.13967 6.15889C1.17335 5.96704 1.2514 5.78571 1.36759 5.62937C1.48378 5.47303 1.6349 5.34601 1.80889 5.25844C1.98288 5.17087 2.17493 5.12518 2.36972 5.125H2.99472C3.16026 5.12508 3.31901 5.19082 3.43612 5.30781L5.12909 7H6.88612L6.183 4.89531C6.12034 4.70734 6.10326 4.50717 6.13317 4.3113C6.16308 4.11542 6.23913 3.92947 6.35504 3.76877C6.47095 3.60807 6.6234 3.47722 6.79982 3.38703C6.97624 3.29683 7.17158 3.24986 7.36972 3.25H7.99472C8.07682 3.24994 8.15813 3.26605 8.234 3.29741C8.30987 3.32878 8.37882 3.37479 8.43691 3.43281L12.0041 7H16.7447C17.5735 7 18.3684 7.32924 18.9544 7.91529C19.5405 8.50134 19.8697 9.2962 19.8697 10.125ZM18.6197 10.125C18.6197 9.62772 18.4222 9.15081 18.0705 8.79918C17.7189 8.44754 17.242 8.25 16.7447 8.25H11.7447C11.5792 8.24992 11.4204 8.18418 11.3033 8.06719L7.73612 4.5H7.36972L8.3455 7.42734C8.3768 7.52124 8.38535 7.62122 8.37046 7.71906C8.35556 7.81691 8.31764 7.90982 8.25982 7.99014C8.202 8.07046 8.12593 8.13591 8.03787 8.18109C7.94981 8.22626 7.85228 8.24988 7.75331 8.25H4.86972C4.78762 8.25007 4.70631 8.23395 4.63044 8.20259C4.55456 8.17122 4.48562 8.12521 4.42753 8.06719L2.73612 6.375H2.36972L3.46894 10.0391C3.58322 10.4264 3.82025 10.7661 4.14433 11.007C4.4684 11.248 4.86199 11.3771 5.26581 11.375H18.6197V10.125Z" fill="#000435" fill-opacity="0.6"/>
</svg>
