<svg width="24" height="24" viewBox="0 0 24 24" fill="none" xmlns="http://www.w3.org/2000/svg">
<path d="M12.25 22C8.80375 22 6 19.1963 6 15.75V2.9375C6 2.42 6.42 2 6.9375 2C7.455 2 7.875 2.42 7.875 2.9375V15.75C7.875 18.1625 9.8375 20.125 12.25 20.125C14.6625 20.125 16.625 18.1625 16.625 15.75V6.375C16.625 4.99625 15.5037 3.875 14.125 3.875C12.7463 3.875 11.625 4.99625 11.625 6.375V15.75C11.625 16.095 11.905 16.375 12.25 16.375C12.595 16.375 12.875 16.095 12.875 15.75V6.6875C12.875 6.17 13.295 5.75 13.8125 5.75C14.33 5.75 14.75 6.17 14.75 6.6875V15.75C14.75 17.1287 13.6287 18.25 12.25 18.25C10.8713 18.25 9.75 17.1287 9.75 15.75V6.375C9.75 3.9625 11.7125 2 14.125 2C16.5375 2 18.5 3.9625 18.5 6.375V15.75C18.5 19.1963 15.6962 22 12.25 22Z" fill="#000435"/>
</svg>
