<svg width="20" height="20" viewBox="0 0 20 20" fill="none" xmlns="http://www.w3.org/2000/svg">
<mask id="path-1-inside-1_436_7121" fill="white">
<path fill-rule="evenodd" clip-rule="evenodd" d="M5.84548 18.3337H14.1555L14.1673 18.3337H17.5007C17.9613 18.3337 18.334 17.9606 18.334 17.5004V10.8337C18.334 9.45516 17.2126 8.33374 15.834 8.33374H15V4.16699C15 2.78841 13.8786 1.66699 12.5 1.66699H7.5C6.12142 1.66699 5 2.78841 5 4.16699V8.33374H4.16699C2.78841 8.33374 1.66699 9.45516 1.66699 10.8337V17.5004C1.66699 17.9606 2.03971 18.3337 2.50033 18.3337H5.83366L5.84548 18.3337ZM5 10.0004V16.6671H3.33366V10.8337C3.33366 10.3743 3.70719 10.0004 4.16699 10.0004H5ZM6.66699 16.667H13.3333V4.16699C13.3333 3.7076 12.9598 3.33366 12.5 3.33366H7.5C7.0402 3.33366 6.66667 3.7076 6.66667 4.16699V9.14354C6.66688 9.15136 6.66699 9.1592 6.66699 9.16707V16.667ZM16.6673 16.6671V10.8337C16.6673 10.3743 16.2938 10.0004 15.834 10.0004H15.0007V16.6671H16.6673ZM9.16732 15.0004H10.834C11.2946 15.0004 11.6673 14.6273 11.6673 14.1671C11.6673 13.7069 11.2946 13.3337 10.834 13.3337H9.16732C8.70671 13.3337 8.33398 13.7069 8.33398 14.1671C8.33398 14.6273 8.70671 15.0004 9.16732 15.0004Z"/>
</mask>
<path fill-rule="evenodd" clip-rule="evenodd" d="M5.84548 18.3337H14.1555L14.1673 18.3337H17.5007C17.9613 18.3337 18.334 17.9606 18.334 17.5004V10.8337C18.334 9.45516 17.2126 8.33374 15.834 8.33374H15V4.16699C15 2.78841 13.8786 1.66699 12.5 1.66699H7.5C6.12142 1.66699 5 2.78841 5 4.16699V8.33374H4.16699C2.78841 8.33374 1.66699 9.45516 1.66699 10.8337V17.5004C1.66699 17.9606 2.03971 18.3337 2.50033 18.3337H5.83366L5.84548 18.3337ZM5 10.0004V16.6671H3.33366V10.8337C3.33366 10.3743 3.70719 10.0004 4.16699 10.0004H5ZM6.66699 16.667H13.3333V4.16699C13.3333 3.7076 12.9598 3.33366 12.5 3.33366H7.5C7.0402 3.33366 6.66667 3.7076 6.66667 4.16699V9.14354C6.66688 9.15136 6.66699 9.1592 6.66699 9.16707V16.667ZM16.6673 16.6671V10.8337C16.6673 10.3743 16.2938 10.0004 15.834 10.0004H15.0007V16.6671H16.6673ZM9.16732 15.0004H10.834C11.2946 15.0004 11.6673 14.6273 11.6673 14.1671C11.6673 13.7069 11.2946 13.3337 10.834 13.3337H9.16732C8.70671 13.3337 8.33398 13.7069 8.33398 14.1671C8.33398 14.6273 8.70671 15.0004 9.16732 15.0004Z" fill="#000435" fill-opacity="0.6"/>
<path d="M14.1555 18.3337L14.1565 18.1837H14.1555V18.3337ZM5.84548 18.3337V18.1837L5.84444 18.1837L5.84548 18.3337ZM14.1673 18.3337L14.1663 18.4837H14.1673V18.3337ZM15 8.33374H14.85V8.48374H15V8.33374ZM5 8.33374V8.48374H5.15V8.33374H5ZM5.83366 18.3337V18.4837L5.8347 18.4837L5.83366 18.3337ZM5 16.6671V16.8171H5.15V16.6671H5ZM5 10.0004H5.15V9.85041H5V10.0004ZM3.33366 16.6671H3.18366V16.8171H3.33366V16.6671ZM13.3333 16.667V16.817H13.4833V16.667H13.3333ZM6.66699 16.667H6.51699V16.817H6.66699V16.667ZM6.66667 9.14354H6.51661L6.51672 9.14769L6.66667 9.14354ZM16.6673 16.6671V16.8171H16.8173V16.6671H16.6673ZM15.0007 10.0004V9.85041H14.8507V10.0004H15.0007ZM15.0007 16.6671H14.8507V16.8171H15.0007V16.6671ZM14.1555 18.1837H5.84548V18.4837H14.1555V18.1837ZM14.1684 18.1837L14.1565 18.1837L14.1545 18.4837L14.1663 18.4837L14.1684 18.1837ZM17.5007 18.1837H14.1673V18.4837H17.5007V18.1837ZM18.184 17.5004C18.184 17.8778 17.8784 18.1837 17.5007 18.1837V18.4837C18.0442 18.4837 18.484 18.0434 18.484 17.5004H18.184ZM18.184 10.8337V17.5004H18.484V10.8337H18.184ZM15.834 8.48374C17.1297 8.48374 18.184 9.538 18.184 10.8337H18.484C18.484 9.37232 17.2954 8.18374 15.834 8.18374V8.48374ZM15 8.48374H15.834V8.18374H15V8.48374ZM14.85 4.16699V8.33374H15.15V4.16699H14.85ZM12.5 1.81699C13.7957 1.81699 14.85 2.87125 14.85 4.16699H15.15C15.15 2.70557 13.9614 1.51699 12.5 1.51699V1.81699ZM7.5 1.81699H12.5V1.51699H7.5V1.81699ZM5.15 4.16699C5.15 2.87125 6.20426 1.81699 7.5 1.81699V1.51699C6.03858 1.51699 4.85 2.70557 4.85 4.16699H5.15ZM5.15 8.33374V4.16699H4.85V8.33374H5.15ZM4.16699 8.48374H5V8.18374H4.16699V8.48374ZM1.81699 10.8337C1.81699 9.538 2.87125 8.48374 4.16699 8.48374V8.18374C2.70557 8.18374 1.51699 9.37232 1.51699 10.8337H1.81699ZM1.81699 17.5004V10.8337H1.51699V17.5004H1.81699ZM2.50033 18.1837C2.1226 18.1837 1.81699 17.8778 1.81699 17.5004H1.51699C1.51699 18.0434 1.95682 18.4837 2.50033 18.4837V18.1837ZM5.83366 18.1837H2.50033V18.4837H5.83366V18.1837ZM5.84444 18.1837L5.83262 18.1837L5.8347 18.4837L5.84652 18.4837L5.84444 18.1837ZM5.15 16.6671V10.0004H4.85V16.6671H5.15ZM3.33366 16.8171H5V16.5171H3.33366V16.8171ZM3.18366 10.8337V16.6671H3.48366V10.8337H3.18366ZM4.16699 9.85041C3.6243 9.85041 3.18366 10.2916 3.18366 10.8337H3.48366C3.48366 10.4571 3.79008 10.1504 4.16699 10.1504V9.85041ZM5 9.85041H4.16699V10.1504H5V9.85041ZM13.3333 16.517H6.66699V16.817H13.3333V16.517ZM13.1833 4.16699V16.667H13.4833V4.16699H13.1833ZM12.5 3.48366C12.8769 3.48366 13.1833 3.7904 13.1833 4.16699H13.4833C13.4833 3.62481 13.0427 3.18366 12.5 3.18366V3.48366ZM7.5 3.48366H12.5V3.18366H7.5V3.48366ZM6.81667 4.16699C6.81667 3.7904 7.12309 3.48366 7.5 3.48366V3.18366C6.95731 3.18366 6.51667 3.62481 6.51667 4.16699H6.81667ZM6.81667 9.14354V4.16699H6.51667V9.14354H6.81667ZM6.81699 9.16707C6.81699 9.15782 6.81686 9.14859 6.81661 9.13939L6.51672 9.14769C6.5169 9.15413 6.51699 9.16059 6.51699 9.16707H6.81699ZM6.81699 16.667V9.16707H6.51699V16.667H6.81699ZM16.5173 10.8337V16.6671H16.8173V10.8337H16.5173ZM15.834 10.1504C16.2109 10.1504 16.5173 10.4571 16.5173 10.8337H16.8173C16.8173 10.2916 16.3767 9.85041 15.834 9.85041V10.1504ZM15.0007 10.1504H15.834V9.85041H15.0007V10.1504ZM15.1507 16.6671V10.0004H14.8507V16.6671H15.1507ZM16.6673 16.5171H15.0007V16.8171H16.6673V16.5171ZM10.834 14.8504H9.16732V15.1504H10.834V14.8504ZM11.5173 14.1671C11.5173 14.5445 11.2117 14.8504 10.834 14.8504V15.1504C11.3775 15.1504 11.8173 14.7101 11.8173 14.1671H11.5173ZM10.834 13.4837C11.2117 13.4837 11.5173 13.7897 11.5173 14.1671H11.8173C11.8173 13.6241 11.3775 13.1837 10.834 13.1837V13.4837ZM9.16732 13.4837H10.834V13.1837H9.16732V13.4837ZM8.48398 14.1671C8.48398 13.7897 8.7896 13.4837 9.16732 13.4837V13.1837C8.62382 13.1837 8.18398 13.6241 8.18398 14.1671H8.48398ZM9.16732 14.8504C8.7896 14.8504 8.48398 14.5445 8.48398 14.1671H8.18398C8.18398 14.7101 8.62382 15.1504 9.16732 15.1504V14.8504Z" fill="white" mask="url(#path-1-inside-1_436_7121)"/>
</svg>
