<svg width="21" height="20" viewBox="0 0 21 20" fill="none" xmlns="http://www.w3.org/2000/svg">
<path d="M19 10C19 14.5219 15.3344 18.1875 10.8125 18.1875C6.29069 18.1875 2.625 14.5219 2.625 10C2.625 5.47812 6.29069 1.81249 10.8125 1.81249C15.3344 1.81249 19 5.47812 19 10Z" stroke="#000435" stroke-opacity="0.6" stroke-width="1.5" stroke-miterlimit="10"/>
<path d="M2.625 10H8.76563C9.89605 10 10.8125 9.08361 10.8125 7.95312C10.8125 6.82264 9.89605 5.90625 8.76563 5.90625C7.63514 5.90625 6.71875 4.98986 6.71875 3.85937V2.90813" stroke="#000435" stroke-opacity="0.6" stroke-width="1.5" stroke-miterlimit="10"/>
<path d="M6.71875 17.4878V16.1408C6.71875 15.0103 7.63514 14.0939 8.76563 14.0939H10.8125C11.9429 14.0939 12.8594 13.1774 12.8594 12.047C12.8594 10.9165 13.7758 10.0001 14.9063 10.0001H19" stroke="#000435" stroke-opacity="0.6" stroke-width="1.5" stroke-miterlimit="10"/>
</svg>
