<svg width="21" height="20" viewBox="0 0 21 20" fill="none" xmlns="http://www.w3.org/2000/svg">
<path d="M10.8947 10.1504H10.6144H7.41739H7.32469L7.28323 10.0675L6.62481 8.75062L6.6248 8.75062C6.43711 8.37521 5.98064 8.22307 5.60526 8.41078L5.60526 8.41078C5.22986 8.59849 5.07771 9.0549 5.2654 9.4303C5.2654 9.4303 5.2654 9.4303 5.2654 9.4303L6.17533 11.2502L6.17533 11.2502C6.30405 11.5076 6.56719 11.6702 6.85503 11.6702H10.6144H10.8947L10.7392 11.9035L9.8624 13.2186C9.8624 13.2186 9.8624 13.2186 9.8624 13.2186C9.62965 13.5677 9.72402 14.0396 10.0732 14.2724L10.8947 10.1504ZM10.8947 10.1504L10.7392 9.91718M10.8947 10.1504L10.7392 9.91718M10.7392 9.91718L9.8624 8.60207C9.8624 8.60207 9.8624 8.60206 9.8624 8.60206C9.62965 8.25288 9.72403 7.78104 10.0732 7.54823C10.4224 7.31544 10.8942 7.40978 11.1271 7.759C11.1271 7.759 11.1271 7.75901 11.1271 7.75901L12.6768 10.0836L12.7213 10.1504H12.8016H15.0444C15.4641 10.1504 15.8043 10.4906 15.8043 10.9103C15.8043 11.33 15.4641 11.6702 15.0444 11.6702H12.8016H12.7213M10.7392 9.91718L12.7213 11.6702M12.7213 11.6702L12.6768 11.737M12.7213 11.6702L12.6768 11.737M12.6768 11.737L11.1271 14.0616M12.6768 11.737L11.1271 14.0616M11.1271 14.0616C10.8942 14.4108 10.4224 14.5052 10.0732 14.2725L11.1271 14.0616Z" fill="#000435" fill-opacity="0.6" stroke="white" stroke-width="0.3"/>
<path d="M11.2547 1.81081V1.96081H11.4047H14.1344H14.2844V1.81081C14.2844 1.39111 14.6247 1.05088 15.0444 1.05088C15.4641 1.05088 15.8043 1.39111 15.8043 1.81081V1.96081H15.9543C17.8816 1.96081 19.444 3.52321 19.444 5.45052V15.4597C19.444 17.387 17.8816 18.9494 15.9543 18.9494H5.03516C3.10784 18.9494 1.54545 17.387 1.54545 15.4597V5.45052C1.54545 3.5232 3.10784 1.96081 5.03516 1.96081H5.18516V1.81081C5.18516 1.39111 5.5254 1.05088 5.94509 1.05088C6.36478 1.05088 6.70502 1.39111 6.70502 1.81081V1.96081H6.85502H9.5848H9.7348V1.81081C9.7348 1.39111 10.075 1.05088 10.4947 1.05088C10.9144 1.05088 11.2547 1.39111 11.2547 1.81081ZM5.18516 3.63066V3.48066H5.03516C3.94724 3.48066 3.0653 4.3626 3.0653 5.45052V15.4597C3.0653 16.5477 3.94724 17.4296 5.03516 17.4296H15.9543C17.0422 17.4296 17.9242 16.5477 17.9242 15.4597V5.45052C17.9242 4.3626 17.0423 3.48066 15.9543 3.48066H15.8043V3.63066C15.8043 4.05036 15.4641 4.39059 15.0444 4.39059C14.6247 4.39059 14.2844 4.05036 14.2844 3.63066V3.48066H14.1344H11.4047H11.2547V3.63066C11.2547 4.05036 10.9144 4.39059 10.4947 4.39059C10.075 4.39059 9.7348 4.05036 9.7348 3.63066V3.48066H9.5848H6.85502H6.70502V3.63066C6.70502 4.05036 6.36478 4.39059 5.94509 4.39059C5.5254 4.39059 5.18516 4.05036 5.18516 3.63066Z" fill="#000435" fill-opacity="0.6" stroke="white" stroke-width="0.3"/>
</svg>
