<svg width="24" height="24" viewBox="0 0 24 24" fill="none" xmlns="http://www.w3.org/2000/svg">
<g clip-path="url(#clip0_436_7264)">
<path d="M5.00761 4.63897H4.67272L4.89569 4.88884L10.9202 11.6402C10.9202 11.6402 10.9202 11.6402 10.9202 11.6402C11.4904 12.2795 12.5326 12.2826 13.109 11.651C13.109 11.651 13.109 11.651 13.109 11.651L19.2809 4.8901L19.5101 4.63897H19.1701H5.00761ZM2.88223 5.77852L2.75034 5.63072L2.64384 5.79775C2.39095 6.19436 2.24395 6.66748 2.24395 7.18288V16.817C2.24395 18.2468 3.35806 19.3609 4.78786 19.3609H19.2122C20.6419 19.3609 21.7561 18.2468 21.7561 16.817V7.18288C21.7561 6.72334 21.6404 6.29611 21.4357 5.92716L21.3344 5.74467L21.1937 5.89883L14.6548 13.0642C14.6548 13.0642 14.6548 13.0642 14.6548 13.0642C13.2424 14.6118 10.753 14.5979 9.35796 13.0351C9.35796 13.0351 9.35795 13.0351 9.35795 13.0351L2.88223 5.77852ZM0.15 7.18288C0.15 4.63393 2.23895 2.54502 4.78786 2.54502H19.2122C21.7611 2.54502 23.85 4.63397 23.85 7.18288V16.817C23.85 19.366 21.7611 21.4549 19.2122 21.4549H4.78786C2.23895 21.4549 0.15 19.3659 0.15 16.817V7.18288Z" fill="#000435" fill-opacity="0.6" stroke="white" stroke-width="0.3"/>
</g>
<defs>
<clipPath id="clip0_436_7264">
<rect width="24" height="24" fill="white"/>
</clipPath>
</defs>
</svg>
