<svg width="128" height="32" viewBox="0 0 128 32" fill="none" xmlns="http://www.w3.org/2000/svg">
<path d="M0.185185 28.6646C0.185185 30.2192 1.44542 31.4794 3 31.4794C4.55458 31.4794 5.81481 30.2192 5.81481 28.6646C5.81481 27.11 4.55458 25.8498 3 25.8498C1.44542 25.8498 0.185185 27.11 0.185185 28.6646ZM122.185 28.6646C122.185 30.2192 123.445 31.4794 125 31.4794C126.555 31.4794 127.815 30.2192 127.815 28.6646C127.815 27.11 126.555 25.8498 125 25.8498C123.445 25.8498 122.185 27.11 122.185 28.6646ZM3.23057 29.1394C3.65657 28.9325 4.08088 28.7272 4.50353 28.5237L4.04546 27.5727C3.62176 27.7768 3.19643 27.9825 2.76943 28.1899L3.23057 29.1394ZM7.01972 27.3221C7.87234 26.9186 8.71823 26.5221 9.55763 26.1327L9.11338 25.1752C8.27146 25.5658 7.42314 25.9634 6.56819 26.368L7.01972 27.3221ZM12.08 24.9749C12.9414 24.5839 13.796 24.2007 14.6441 23.8251L14.2167 22.8599C13.3655 23.2369 12.508 23.6215 11.6437 24.0137L12.08 24.9749ZM17.1985 22.7091C18.0608 22.3376 18.9165 21.9744 19.7658 21.6196L19.3589 20.6456C18.5059 21.002 17.6466 21.3667 16.7809 21.7397L17.1985 22.7091ZM22.3553 20.5559C23.2238 20.2054 24.0858 19.8639 24.9416 19.5316L24.5595 18.5476C23.6992 18.8817 22.8329 19.2249 21.9602 19.5771L22.3553 20.5559ZM27.5526 18.539C28.4344 18.2113 29.3098 17.8935 30.1792 17.5858L29.8271 16.5907C28.9522 16.9003 28.0716 17.22 27.1848 17.5496L27.5526 18.539ZM32.8094 16.6798C33.699 16.3819 34.5826 16.095 35.4608 15.819L35.1443 14.812C34.2597 15.09 33.3699 15.379 32.4743 15.6788L32.8094 16.6798ZM38.1334 15.0081C39.0322 14.7454 39.9255 14.4945 40.8139 14.2555L40.5397 13.2362C39.6438 13.4772 38.7431 13.7301 37.8373 13.9949L38.1334 15.0081ZM43.5049 13.5646C44.4155 13.3422 45.3213 13.1326 46.2228 12.936L45.9979 11.9046C45.0876 12.1032 44.1732 12.3147 43.2544 12.5392L43.5049 13.5646ZM48.9524 12.378C49.8691 12.2033 50.7819 12.0423 51.6915 11.8952L51.5229 10.8532C50.6035 11.0019 49.681 11.1646 48.7548 11.3411L48.9524 12.378ZM54.4409 11.4912C55.3646 11.3694 56.2854 11.2622 57.2041 11.1695L57.0982 10.1193C56.1686 10.213 55.2371 10.3216 54.3029 10.4447L54.4409 11.4912ZM59.9765 10.9339C60.9032 10.87 61.8284 10.8212 62.7526 10.7876L62.7143 9.73276C61.7785 9.7668 60.8419 9.81621 59.9039 9.88089L59.9765 10.9339ZM65.5312 10.7324C66.4578 10.7294 67.3842 10.7418 68.311 10.7696L68.3428 9.71457C67.4042 9.68633 66.4661 9.67381 65.5278 9.67689L65.5312 10.7324ZM71.0884 10.8996C72.0102 10.9582 72.9332 11.0321 73.8579 11.1216L73.9596 10.0709C73.0233 9.98036 72.0887 9.90548 71.1553 9.84619L71.0884 10.8996ZM76.6192 11.4342C77.5341 11.5528 78.4513 11.6865 79.3715 11.8355L79.5402 10.7935C78.6091 10.6427 77.6809 10.5074 76.7549 10.3874L76.6192 11.4342ZM82.1144 12.323C83.0175 12.4978 83.924 12.6871 84.8346 12.8911L85.0654 11.8611C84.1449 11.6549 83.2283 11.4634 82.3149 11.2867L82.1144 12.323ZM87.5373 13.5369C88.4293 13.7631 89.3256 14.0032 90.2268 14.2574L90.5133 13.2415C89.6033 12.9848 88.698 12.7423 87.7968 12.5137L87.5373 13.5369ZM92.905 15.0498C93.781 15.3208 94.6621 15.605 95.5485 15.9022L95.8841 14.9014C94.99 14.6016 94.1011 14.3149 93.217 14.0414L92.905 15.0498ZM98.1762 16.8161C99.0435 17.1284 99.9164 17.453 100.795 17.7901L101.173 16.8045C100.288 16.4649 99.4081 16.1378 98.5338 15.823L98.1762 16.8161ZM103.386 18.813C104.236 19.1579 105.092 19.5142 105.954 19.8819L106.368 18.911C105.501 18.5409 104.639 18.1822 103.783 17.8349L103.386 18.813ZM108.519 21.0019C109.357 21.3762 110.202 21.761 111.052 22.1565L111.497 21.1994C110.642 20.8017 109.793 20.4146 108.949 20.0381L108.519 21.0019ZM113.57 23.3495C114.404 23.7519 115.244 24.1642 116.091 24.5866L116.562 23.642C115.711 23.2177 114.867 22.8033 114.029 22.3988L113.57 23.3495ZM118.564 25.8397C119.386 26.2623 120.214 26.6941 121.048 27.1352L121.542 26.202C120.704 25.7591 119.872 25.3254 119.047 24.901L118.564 25.8397ZM123.504 28.4501C123.917 28.6736 124.331 28.8994 124.746 29.1274L125.254 28.2019C124.837 27.9731 124.421 27.7465 124.007 27.5221L123.504 28.4501Z" fill="#000435" fill-opacity="0.3"/>
<path d="M59.7756 20.7387L61.8878 20.7387L67.1683 12.2899L72.9768 12.2899C73.8533 12.2899 74.5609 11.5823 74.5609 10.7058C74.5609 9.82919 73.8533 9.12161 72.9768 9.12161L67.1683 9.12161L61.8878 0.672851L59.7756 0.672851L62.4158 9.12161L56.6073 9.12161L55.0232 7.00942L53.439 7.00942L54.4951 10.7058L53.439 14.4021L55.0232 14.4021L56.6073 12.2899L62.4158 12.2899L59.7756 20.7387Z" fill="#BCB9B7"/>
</svg>
