<svg width="190" height="33" viewBox="0 0 190 33" fill="none" xmlns="http://www.w3.org/2000/svg">
<path d="M0.185185 29.8897C0.185185 31.4443 1.44542 32.7045 3 32.7045C4.55458 32.7045 5.81481 31.4443 5.81481 29.8897C5.81481 28.3351 4.55458 27.0749 3 27.0749C1.44542 27.0749 0.185185 28.3351 0.185185 29.8897ZM184.185 29.8897C184.185 31.4443 185.445 32.7045 187 32.7045C188.555 32.7045 189.815 31.4443 189.815 29.8897C189.815 28.3351 188.555 27.0749 187 27.0749C185.445 27.0749 184.185 28.3351 184.185 29.8897ZM3.16177 30.3921C3.62163 30.244 4.08018 30.0968 4.53744 29.9504L4.21561 28.9451C3.75776 29.0917 3.29864 29.2391 2.83823 29.3874L3.16177 30.3921ZM7.26577 29.0822C8.17091 28.796 9.07103 28.5132 9.96626 28.2338L9.65179 27.2262C8.75526 27.506 7.85388 27.7892 6.94752 28.0758L7.26577 29.0822ZM12.7157 27.3818C13.627 27.1015 14.5334 26.8248 15.4348 26.5517L15.1288 25.5415C14.2259 25.815 13.3181 26.0922 12.4053 26.3729L12.7157 27.3818ZM18.174 25.7288C19.0918 25.4554 20.0047 25.1859 20.9126 24.9203L20.6162 23.9072C19.7066 24.1733 18.7921 24.4433 17.8726 24.7172L18.174 25.7288ZM23.6446 24.1286C24.5684 23.8636 25.4872 23.6026 26.4012 23.3459L26.1157 22.3297C25.1998 22.587 24.2791 22.8484 23.3534 23.114L23.6446 24.1286ZM29.1308 22.5876C30.0601 22.3323 30.9844 22.0816 31.9039 21.8352L31.6307 20.8156C30.709 21.0625 29.7826 21.3139 28.8513 21.5697L29.1308 22.5876ZM34.6483 21.1095C35.5781 20.8669 36.5031 20.629 37.4234 20.3958L37.1641 19.3726C36.2413 19.6064 35.314 19.8449 34.3819 20.0881L34.6483 21.1095ZM40.1834 19.707C41.1141 19.4784 42.0402 19.2547 42.962 19.0359L42.7182 18.0089C41.7937 18.2283 40.865 18.4527 39.9316 18.6819L40.1834 19.707ZM45.736 18.3893C46.6686 18.176 47.5969 17.9678 48.521 17.7649L48.2945 16.7339C47.3674 16.9375 46.4362 17.1464 45.5007 17.3604L45.736 18.3893ZM51.3077 17.1658C52.2429 16.9692 53.174 16.7781 54.1013 16.5924L53.894 15.5574C52.9634 15.7437 52.029 15.9356 51.0906 16.1328L51.3077 17.1658ZM56.8993 16.0463C57.8376 15.8681 58.772 15.6956 59.7029 15.5287L59.5167 14.4897C58.5822 14.6572 57.6441 14.8304 56.7023 15.0093L56.8993 16.0463ZM62.511 15.0412C63.4525 14.883 64.3905 14.7308 65.3253 14.5846L65.1622 13.5417C64.2234 13.6885 63.2814 13.8414 62.3361 14.0002L62.511 15.0412ZM68.1422 14.1608C69.0868 14.0245 70.0283 13.8943 70.9671 13.7704L70.829 12.7239C69.8859 12.8484 68.9401 12.9791 67.9914 13.1161L68.1422 14.1608ZM73.7917 13.4156C74.739 13.3026 75.6837 13.1962 76.6262 13.0962L76.5149 12.0465C75.5678 12.147 74.6185 12.254 73.6668 12.3674L73.7917 13.4156ZM79.4575 12.8149C80.4069 12.727 81.3543 12.6458 82.3 12.5713L82.2171 11.519C81.2666 11.5939 80.3144 11.6755 79.3602 11.7639L79.4575 12.8149ZM85.137 12.3677C86.0877 12.3062 87.037 12.2515 87.9851 12.2038L87.9319 11.1495C86.9788 11.1976 86.0245 11.2525 85.0689 11.3144L85.137 12.3677ZM90.8284 12.0811C91.7789 12.047 92.7286 12.02 93.6777 11.9999L93.6554 10.9446C92.7011 10.9647 91.7462 10.992 90.7906 11.0262L90.8284 12.0811ZM96.5249 11.9609C97.4746 11.9549 98.4241 11.956 99.3737 11.9642L99.3828 10.9087C98.428 10.9004 97.4732 10.8993 96.5182 10.9053L96.5249 11.9609ZM102.221 12.0103C103.17 12.0327 104.119 12.0623 105.069 12.099L105.109 11.0443C104.154 11.0073 103.2 10.9776 102.246 10.955L102.221 12.0103ZM107.913 12.2304C108.86 12.2812 109.808 12.3392 110.758 12.4043L110.83 11.3512C109.875 11.2857 108.922 11.2275 107.969 11.1763L107.913 12.2304ZM113.595 12.6199C114.541 12.6987 115.488 12.7847 116.437 12.8777L116.54 11.8272C115.586 11.7336 114.634 11.6473 113.683 11.568L113.595 12.6199ZM119.265 13.1754C120.208 13.2815 121.153 13.3947 122.101 13.5148L122.234 12.4677C121.281 12.3469 120.331 12.2331 119.383 12.1265L119.265 13.1754ZM124.916 13.8914C125.856 14.0237 126.799 14.1628 127.744 14.3089L127.905 13.2657C126.955 13.1189 126.008 12.9791 125.064 12.8462L124.916 13.8914ZM130.548 14.7609C131.483 14.9179 132.422 15.0817 133.364 15.2522L133.552 14.2135C132.605 14.0422 131.662 13.8777 130.722 13.7199L130.548 14.7609ZM136.156 15.7754C137.087 15.9558 138.021 16.1427 138.959 16.3362L139.173 15.3024C138.23 15.1081 137.292 14.9203 136.356 14.7391L136.156 15.7754ZM141.738 16.9258C142.665 17.128 143.595 17.3366 144.53 17.5515L144.767 16.5228C143.828 16.307 142.894 16.0976 141.963 15.8945L141.738 16.9258ZM147.293 18.2024C148.217 18.425 149.144 18.6537 150.075 18.8886L150.333 17.8651C149.398 17.6293 148.468 17.3997 147.541 17.1762L147.293 18.2024ZM152.822 19.5954C153.741 19.8369 154.665 20.0843 155.594 20.3376L155.872 19.3192C154.94 19.0651 154.013 18.8168 153.09 18.5745L152.822 19.5954ZM158.323 21.0954C159.237 21.3535 160.155 21.6172 161.078 21.8866L161.374 20.8733C160.448 20.6031 159.527 20.3385 158.61 20.0796L158.323 21.0954ZM163.8 22.6933C164.707 22.9662 165.618 23.2444 166.535 23.5281L166.847 22.5197C165.928 22.2353 165.013 21.9562 164.104 21.6825L163.8 22.6933ZM169.253 24.3807C170.152 24.6667 171.057 24.9578 171.966 25.254L172.293 24.2503C171.381 23.9534 170.475 23.6615 169.572 23.3747L169.253 24.3807ZM174.685 26.1501C175.577 26.4475 176.474 26.7498 177.375 27.0569L177.716 26.0577C176.812 25.7499 175.913 25.4469 175.019 25.1488L174.685 26.1501ZM180.095 27.9929C180.981 28.3008 181.871 28.6133 182.766 28.9304L183.119 27.9354C182.222 27.6176 181.329 27.3044 180.442 26.9959L180.095 27.9929ZM185.461 29.8937C185.913 30.0565 186.365 30.2205 186.82 30.3857L187.18 29.3937C186.725 29.2282 186.272 29.0639 185.819 28.9007L185.461 29.8937Z" fill="#000435" fill-opacity="0.3"/>
<path d="M88.629 20.9638L91.8146 20.9638L99.7786 12.515L108.539 12.515C109.861 12.515 110.928 11.8074 110.928 10.9309C110.928 10.0543 109.861 9.34671 108.539 9.34671L99.7786 9.34671L91.8146 0.897949L88.629 0.897949L92.611 9.34671L83.8506 9.34671L81.4615 7.23452L79.0723 7.23452L80.6651 10.9309L79.0723 14.6272L81.4614 14.6272L83.8506 12.515L92.611 12.515L88.629 20.9638Z" fill="#E6E6EB"/>
</svg>
