<svg width="20" height="20" viewBox="0 0 20 20" fill="none" xmlns="http://www.w3.org/2000/svg">
<mask id="path-1-inside-1_436_7110" fill="white">
<path fill-rule="evenodd" clip-rule="evenodd" d="M7.38082 17C5.28627 14.8531 3 11.342 3 8.3117C3.00216 6.37318 3.77319 4.51467 5.14393 3.14393C6.51467 1.77319 8.37318 1.00216 10.3117 1C11.3315 1.00105 12.3404 1.2096 13.277 1.61296C14.2136 2.01633 15.0583 2.60607 15.7597 3.34628C16.3985 4.00875 16.8936 4.79596 17.2141 5.65862C17.5346 6.52128 17.6735 7.44081 17.6222 8.35964C17.4494 11.3038 15.1196 14.8372 13.0703 17H16.75C17.0815 17 17.3995 17.1054 17.6339 17.2929C17.8683 17.4804 18 17.7348 18 18C18 18.2652 17.8683 18.5196 17.6339 18.7071C17.3995 18.8946 17.0815 19 16.75 19H10.3117H4.25C3.91848 19 3.60054 18.8946 3.36612 18.7071C3.1317 18.5196 3 18.2652 3 18C3 17.7348 3.1317 17.4804 3.36612 17.2929C3.60054 17.1054 3.91848 17 4.25 17H7.38082ZM10.6959 17H9.81815C8.24368 15.7559 4.63636 11.7352 4.63636 8.3117C4.63809 6.80704 5.23659 5.3645 6.30054 4.30054C7.3645 3.23658 8.80704 2.63809 10.3117 2.63636C11.1085 2.63706 11.8969 2.79988 12.6288 3.11492C13.3608 3.42996 14.0209 3.89062 14.5692 4.46889C15.0541 4.96975 15.4305 5.56528 15.6749 6.21824C15.9192 6.8712 16.0261 7.56755 15.989 8.26373C15.79 11.6462 12.2319 15.7105 10.6959 17ZM10.1955 12.0455C9.4673 12.0455 8.75546 11.8296 8.14998 11.425C7.54451 11.0205 7.0726 10.4454 6.79394 9.77268C6.51527 9.09991 6.44235 8.35962 6.58442 7.64542C6.72648 6.93121 7.07714 6.27518 7.59205 5.76027C8.10697 5.24535 8.763 4.8947 9.4772 4.75263C10.1914 4.61057 10.9317 4.68348 11.6045 4.96215C12.2772 5.24082 12.8522 5.71272 13.2568 6.3182C13.6614 6.92367 13.8773 7.63551 13.8773 8.3637C13.8762 9.33986 13.488 10.2757 12.7978 10.966C12.1075 11.6562 11.1716 12.0445 10.1955 12.0455ZM10.1955 6.31825C9.79094 6.31825 9.39547 6.43821 9.0591 6.66297C8.72272 6.88773 8.46055 7.20718 8.30574 7.58094C8.15092 7.9547 8.11042 8.36597 8.18934 8.76275C8.26826 9.15953 8.46307 9.524 8.74914 9.81006C9.0352 10.0961 9.39966 10.2909 9.79644 10.3699C10.1932 10.4488 10.6045 10.4083 10.9783 10.2535C11.352 10.0986 11.6715 9.83647 11.8962 9.5001C12.121 9.16372 12.2409 8.76826 12.2409 8.3637C12.2403 7.82141 12.0246 7.30151 11.6411 6.91805C11.2577 6.53459 10.7378 6.31889 10.1955 6.31825Z"/>
</mask>
<path fill-rule="evenodd" clip-rule="evenodd" d="M7.38082 17C5.28627 14.8531 3 11.342 3 8.3117C3.00216 6.37318 3.77319 4.51467 5.14393 3.14393C6.51467 1.77319 8.37318 1.00216 10.3117 1C11.3315 1.00105 12.3404 1.2096 13.277 1.61296C14.2136 2.01633 15.0583 2.60607 15.7597 3.34628C16.3985 4.00875 16.8936 4.79596 17.2141 5.65862C17.5346 6.52128 17.6735 7.44081 17.6222 8.35964C17.4494 11.3038 15.1196 14.8372 13.0703 17H16.75C17.0815 17 17.3995 17.1054 17.6339 17.2929C17.8683 17.4804 18 17.7348 18 18C18 18.2652 17.8683 18.5196 17.6339 18.7071C17.3995 18.8946 17.0815 19 16.75 19H10.3117H4.25C3.91848 19 3.60054 18.8946 3.36612 18.7071C3.1317 18.5196 3 18.2652 3 18C3 17.7348 3.1317 17.4804 3.36612 17.2929C3.60054 17.1054 3.91848 17 4.25 17H7.38082ZM10.6959 17H9.81815C8.24368 15.7559 4.63636 11.7352 4.63636 8.3117C4.63809 6.80704 5.23659 5.3645 6.30054 4.30054C7.3645 3.23658 8.80704 2.63809 10.3117 2.63636C11.1085 2.63706 11.8969 2.79988 12.6288 3.11492C13.3608 3.42996 14.0209 3.89062 14.5692 4.46889C15.0541 4.96975 15.4305 5.56528 15.6749 6.21824C15.9192 6.8712 16.0261 7.56755 15.989 8.26373C15.79 11.6462 12.2319 15.7105 10.6959 17ZM10.1955 12.0455C9.4673 12.0455 8.75546 11.8296 8.14998 11.425C7.54451 11.0205 7.0726 10.4454 6.79394 9.77268C6.51527 9.09991 6.44235 8.35962 6.58442 7.64542C6.72648 6.93121 7.07714 6.27518 7.59205 5.76027C8.10697 5.24535 8.763 4.8947 9.4772 4.75263C10.1914 4.61057 10.9317 4.68348 11.6045 4.96215C12.2772 5.24082 12.8522 5.71272 13.2568 6.3182C13.6614 6.92367 13.8773 7.63551 13.8773 8.3637C13.8762 9.33986 13.488 10.2757 12.7978 10.966C12.1075 11.6562 11.1716 12.0445 10.1955 12.0455ZM10.1955 6.31825C9.79094 6.31825 9.39547 6.43821 9.0591 6.66297C8.72272 6.88773 8.46055 7.20718 8.30574 7.58094C8.15092 7.9547 8.11042 8.36597 8.18934 8.76275C8.26826 9.15953 8.46307 9.524 8.74914 9.81006C9.0352 10.0961 9.39966 10.2909 9.79644 10.3699C10.1932 10.4488 10.6045 10.4083 10.9783 10.2535C11.352 10.0986 11.6715 9.83647 11.8962 9.5001C12.121 9.16372 12.2409 8.76826 12.2409 8.3637C12.2403 7.82141 12.0246 7.30151 11.6411 6.91805C11.2577 6.53459 10.7378 6.31889 10.1955 6.31825Z" fill="#000435" fill-opacity="0.6"/>
<path d="M3 8.3117L2.85 8.31153V8.3117H3ZM7.38082 17V17.15H7.73672L7.48819 16.8953L7.38082 17ZM10.3117 1L10.3119 0.85L10.3115 0.85L10.3117 1ZM13.277 1.61296L13.2176 1.75073L13.277 1.61296ZM15.7597 3.34628L15.6508 3.44946L15.6517 3.4504L15.7597 3.34628ZM17.2141 5.65862L17.3547 5.60638L17.2141 5.65862ZM17.6222 8.35964L17.7719 8.36843L17.772 8.36801L17.6222 8.35964ZM13.0703 17L12.9615 16.8968L12.7216 17.15H13.0703V17ZM3.36612 18.7071L3.27241 18.8242L3.36612 18.7071ZM3.36612 17.2929L3.27241 17.1758L3.36612 17.2929ZM9.81815 17L9.72515 17.1177L9.76604 17.15H9.81815V17ZM10.6959 17V17.15H10.7505L10.7923 17.1149L10.6959 17ZM4.63636 8.3117L4.48636 8.31153V8.3117H4.63636ZM10.3117 2.63636L10.3118 2.48636L10.3115 2.48636L10.3117 2.63636ZM12.6288 3.11492L12.6881 2.97714L12.6288 3.11492ZM14.5692 4.46889L14.4603 4.5721L14.4614 4.57323L14.5692 4.46889ZM15.6749 6.21824L15.8153 6.16568L15.6749 6.21824ZM15.989 8.26373L16.1388 8.27254L16.1388 8.27171L15.989 8.26373ZM8.14998 11.425L8.23332 11.3003H8.23332L8.14998 11.425ZM10.1955 12.0455V12.1955H10.1957L10.1955 12.0455ZM6.79394 9.77268L6.65535 9.83008L6.79394 9.77268ZM6.58442 7.64542L6.4373 7.61615L6.58442 7.64542ZM9.4772 4.75263L9.44794 4.60551L9.4772 4.75263ZM11.6045 4.96215L11.5471 5.10073L11.6045 4.96215ZM13.2568 6.3182L13.1321 6.40153V6.40153L13.2568 6.3182ZM13.8773 8.3637L14.0273 8.36387V8.3637H13.8773ZM12.7978 10.966L12.6917 10.8599L12.7978 10.966ZM9.0591 6.66297L9.14243 6.78769L9.0591 6.66297ZM10.1955 6.31825L10.1957 6.16825H10.1955V6.31825ZM8.18934 8.76275L8.33646 8.73349L8.18934 8.76275ZM8.74914 9.81006L8.64307 9.91613H8.64307L8.74914 9.81006ZM9.79644 10.3699L9.76718 10.517H9.76718L9.79644 10.3699ZM10.9783 10.2535L10.9209 10.1149L10.9783 10.2535ZM12.2409 8.3637H12.3909L12.3909 8.36353L12.2409 8.3637ZM11.6411 6.91805L11.7472 6.81199L11.6411 6.91805ZM2.85 8.3117C2.85 9.86188 3.43373 11.5228 4.27333 13.0591C5.11392 14.5972 6.21764 16.0225 7.27346 17.1047L7.48819 16.8953C6.44945 15.8305 5.36276 14.4269 4.53658 12.9152C3.70941 11.4016 3.15 9.79186 3.15 8.3117H2.85ZM5.03787 3.03787C3.63903 4.4367 2.8522 6.33329 2.85 8.31153L3.15 8.31186C3.15211 6.41307 3.90735 4.59265 5.25 3.25L5.03787 3.03787ZM10.3115 0.85C8.33329 0.852203 6.4367 1.63903 5.03787 3.03787L5.25 3.25C6.59265 1.90735 8.41307 1.15211 10.3119 1.15L10.3115 0.85ZM13.3363 1.47519C12.381 1.06378 11.352 0.851066 10.3119 0.85L10.3115 1.15C11.311 1.15102 12.2997 1.35541 13.2176 1.75073L13.3363 1.47519ZM15.8686 3.24311C15.1532 2.48812 14.2916 1.88661 13.3363 1.47519L13.2176 1.75073C14.1355 2.14604 14.9634 2.72401 15.6508 3.44946L15.8686 3.24311ZM17.3547 5.60638C17.027 4.72436 16.5208 3.9195 15.8677 3.24217L15.6517 3.4504C16.2762 4.098 16.7602 4.86755 17.0735 5.71085L17.3547 5.60638ZM17.772 8.36801C17.8244 7.42856 17.6824 6.48839 17.3547 5.60638L17.0735 5.71085C17.3868 6.55416 17.5226 7.45306 17.4724 8.35128L17.772 8.36801ZM13.1792 17.1032C14.2115 16.0137 15.3138 14.5799 16.1805 13.0466C17.0461 11.5154 17.6836 9.87288 17.7719 8.36843L17.4725 8.35085C17.3879 9.79052 16.7742 11.3868 15.9194 12.899C15.0657 14.4092 13.9785 15.8235 12.9615 16.8968L13.1792 17.1032ZM13.0703 17.15H16.75V16.85H13.0703V17.15ZM16.75 17.15C17.0512 17.15 17.3352 17.246 17.5402 17.41L17.7276 17.1758C17.4638 16.9647 17.1118 16.85 16.75 16.85V17.15ZM17.5402 17.41C17.7443 17.5733 17.85 17.7867 17.85 18H18.15C18.15 17.6828 17.9923 17.3875 17.7276 17.1758L17.5402 17.41ZM17.85 18C17.85 18.2133 17.7443 18.4267 17.5402 18.59L17.7276 18.8242C17.9923 18.6125 18.15 18.3172 18.15 18H17.85ZM17.5402 18.59C17.3352 18.754 17.0512 18.85 16.75 18.85V19.15C17.1118 19.15 17.4638 19.0353 17.7276 18.8242L17.5402 18.59ZM16.75 18.85H10.3117V19.15H16.75V18.85ZM10.3117 18.85H4.25V19.15H10.3117V18.85ZM4.25 18.85C3.94876 18.85 3.66484 18.754 3.45982 18.59L3.27241 18.8242C3.53624 19.0353 3.8882 19.15 4.25 19.15V18.85ZM3.45982 18.59C3.25567 18.4267 3.15 18.2133 3.15 18H2.85C2.85 18.3172 3.00772 18.6125 3.27241 18.8242L3.45982 18.59ZM3.15 18C3.15 17.7867 3.25567 17.5733 3.45982 17.41L3.27241 17.1758C3.00772 17.3875 2.85 17.6828 2.85 18H3.15ZM3.45982 17.41C3.66484 17.246 3.94876 17.15 4.25 17.15V16.85C3.8882 16.85 3.53624 16.9647 3.27241 17.1758L3.45982 17.41ZM4.25 17.15H7.38082V16.85H4.25V17.15ZM9.81815 17.15H10.6959V16.85H9.81815V17.15ZM9.91115 16.8823C9.13674 16.2704 7.85125 14.9655 6.7602 13.3878C5.66674 11.8067 4.78636 9.97693 4.78636 8.3117H4.48636C4.48636 10.0699 5.40964 11.9623 6.51346 13.5584C7.61968 15.158 8.92509 16.4855 9.72515 17.1177L9.91115 16.8823ZM4.78636 8.31187C4.78805 6.84693 5.37074 5.44248 6.40661 4.40661L6.19448 4.19448C5.10243 5.28652 4.48814 6.76714 4.48636 8.31153L4.78636 8.31187ZM6.40661 4.40661C7.44248 3.37074 8.84693 2.78805 10.3119 2.78636L10.3115 2.48636C8.76714 2.48814 7.28652 3.10243 6.19448 4.19448L6.40661 4.40661ZM10.3116 2.78636C11.0881 2.78704 11.8563 2.94571 12.5695 3.2527L12.6881 2.97714C11.9375 2.65406 11.129 2.48708 10.3118 2.48636L10.3116 2.78636ZM12.5695 3.2527C13.2828 3.55969 13.9261 4.00859 14.4603 4.57209L14.6781 4.36568C14.1158 3.77265 13.4388 3.30022 12.6881 2.97714L12.5695 3.2527ZM14.4614 4.57323C14.932 5.05927 15.2973 5.63717 15.5344 6.27081L15.8153 6.16568C15.5638 5.49339 15.1763 4.88023 14.677 4.36455L14.4614 4.57323ZM15.5344 6.27081C15.7714 6.90444 15.8752 7.58017 15.8392 8.25575L16.1388 8.27171C16.177 7.55492 16.0669 6.83797 15.8153 6.16568L15.5344 6.27081ZM15.8393 8.25492C15.7422 9.90417 14.8224 11.7378 13.7204 13.3314C12.6209 14.9217 11.3562 16.2499 10.5994 16.8851L10.7923 17.1149C11.5716 16.4607 12.854 15.112 13.9672 13.5021C15.0781 11.8955 16.0368 10.0058 16.1388 8.27254L15.8393 8.25492ZM8.06665 11.5497C8.69679 11.9708 9.43763 12.1955 10.1955 12.1955V11.8955C9.49696 11.8955 8.81412 11.6884 8.23332 11.3003L8.06665 11.5497ZM6.65535 9.83008C6.94537 10.5303 7.43651 11.1287 8.06665 11.5497L8.23332 11.3003C7.65251 10.9122 7.19983 10.3606 6.93252 9.71527L6.65535 9.83008ZM6.4373 7.61615C6.28945 8.35945 6.36533 9.1299 6.65535 9.83008L6.93252 9.71527C6.6652 9.06992 6.59526 8.35979 6.73154 7.67468L6.4373 7.61615ZM7.48599 5.6542C6.9501 6.19009 6.58515 6.87285 6.4373 7.61615L6.73154 7.67468C6.86781 6.98957 7.20419 6.36027 7.69812 5.86633L7.48599 5.6542ZM9.44794 4.60551C8.70464 4.75337 8.02188 5.11831 7.48599 5.6542L7.69812 5.86633C8.19205 5.3724 8.82136 5.03603 9.50647 4.89975L9.44794 4.60551ZM11.6619 4.82357C10.9617 4.53355 10.1912 4.45766 9.44794 4.60551L9.50647 4.89975C10.1916 4.76347 10.9017 4.83342 11.5471 5.10073L11.6619 4.82357ZM13.3815 6.23486C12.9605 5.60472 12.362 5.11359 11.6619 4.82357L11.5471 5.10073C12.1924 5.36804 12.744 5.82073 13.1321 6.40153L13.3815 6.23486ZM14.0273 8.3637C14.0273 7.60584 13.8026 6.865 13.3815 6.23486L13.1321 6.40153C13.5202 6.98234 13.7273 7.66518 13.7273 8.3637H14.0273ZM12.9038 11.072C13.6222 10.3537 14.0262 9.37975 14.0273 8.36387L13.7273 8.36354C13.7263 9.29997 13.3538 10.1977 12.6917 10.8599L12.9038 11.072ZM10.1957 12.1955C11.2115 12.1944 12.1855 11.7904 12.9038 11.072L12.6917 10.8599C12.0295 11.5221 11.1318 11.8945 10.1953 11.8955L10.1957 12.1955ZM9.14243 6.78769C9.45414 6.57942 9.82061 6.46825 10.1955 6.46825V6.16825C9.76127 6.16825 9.3368 6.29701 8.97576 6.53825L9.14243 6.78769ZM8.44432 7.63835C8.58778 7.292 8.83073 6.99597 9.14243 6.78769L8.97576 6.53825C8.61472 6.77949 8.33332 7.12237 8.16716 7.52354L8.44432 7.63835ZM8.33646 8.73349C8.26332 8.36581 8.30086 7.98469 8.44432 7.63835L8.16716 7.52354C8.00099 7.92471 7.95751 8.36614 8.04222 8.79202L8.33646 8.73349ZM8.8552 9.70399C8.59012 9.43891 8.40959 9.10117 8.33646 8.73349L8.04222 8.79202C8.12693 9.21789 8.33603 9.60909 8.64307 9.91613L8.8552 9.70399ZM9.82571 10.2227C9.45802 10.1496 9.12029 9.96908 8.8552 9.70399L8.64307 9.91613C8.95011 10.2232 9.3413 10.4323 9.76718 10.517L9.82571 10.2227ZM10.9209 10.1149C10.5745 10.2583 10.1934 10.2959 9.82571 10.2227L9.76718 10.517C10.1931 10.6017 10.6345 10.5582 11.0357 10.392L10.9209 10.1149ZM11.7715 9.41676C11.5632 9.72847 11.2672 9.97141 10.9209 10.1149L11.0357 10.392C11.4368 10.2259 11.7797 9.94447 12.0209 9.58343L11.7715 9.41676ZM12.0909 8.3637C12.0909 8.73859 11.9798 9.10506 11.7715 9.41676L12.0209 9.58343C12.2622 9.22239 12.3909 8.79792 12.3909 8.3637H12.0909ZM11.5351 7.02412C11.8904 7.37949 12.0904 7.86131 12.0909 8.36388L12.3909 8.36353C12.3903 7.78151 12.1588 7.22353 11.7472 6.81199L11.5351 7.02412ZM10.1953 6.46825C10.6979 6.46884 11.1797 6.66875 11.5351 7.02412L11.7472 6.81199C11.3357 6.40044 10.7777 6.16893 10.1957 6.16825L10.1953 6.46825Z" fill="white" mask="url(#path-1-inside-1_436_7110)"/>
</svg>
