<svg width="256" height="55" viewBox="0 0 256 55" fill="none" xmlns="http://www.w3.org/2000/svg">
<path d="M220.882 15.0911L254.916 0.314956C254.931 0.308736 254.947 0.30648 254.963 0.308409C254.979 0.310338 254.994 0.316387 255.007 0.325957C255.02 0.335527 255.03 0.348286 255.036 0.362973C255.043 0.377659 255.045 0.393763 255.043 0.409692L250.964 37.227C250.963 37.2432 250.957 37.2586 250.947 37.2718C250.938 37.2849 250.925 37.2954 250.91 37.302C250.895 37.3086 250.879 37.3111 250.863 37.3093C250.846 37.3076 250.831 37.3016 250.818 37.292L220.863 15.2508C220.85 15.2412 220.84 15.2282 220.833 15.2132C220.826 15.1982 220.824 15.1817 220.826 15.1654C220.828 15.1491 220.834 15.1337 220.844 15.1206C220.854 15.1075 220.867 15.0974 220.882 15.0911Z" fill="white"/>
<path d="M217.25 32.0673C217.195 34.3437 219.335 35.3046 221.358 35.8487C224.917 36.8015 231.301 37.6108 232.049 42.2502C232.947 47.8098 227.886 50.3785 223.208 50.4381C219.88 50.4814 215.967 49.6694 213.325 47.4688C213.244 47.4002 213.226 47.3172 213.271 47.2198L214.443 44.7512C214.45 44.7346 214.462 44.7199 214.476 44.7085C214.49 44.697 214.507 44.689 214.525 44.6851C214.543 44.6812 214.562 44.6814 214.58 44.6858C214.598 44.6903 214.615 44.6987 214.63 44.7106C217.209 46.8381 220.726 47.6799 224.024 47.4065C226.224 47.2225 228.952 46.1208 228.662 43.3789C228.45 41.3678 226.433 40.4962 224.683 40.0604C222.908 39.6165 221.139 39.1491 219.376 38.6583C216.827 37.9491 214.253 36.2276 213.9 33.4559C213.528 30.5037 214.551 28.2869 216.97 26.8054C220.336 24.7456 225.378 25.0623 228.955 26.3886C229.665 26.6538 230.327 27.0517 230.994 27.4361C231.076 27.483 231.098 27.5489 231.062 27.6337L230.002 30.2051C229.996 30.2186 229.987 30.2307 229.977 30.2405C229.966 30.2504 229.953 30.2577 229.939 30.2621C229.925 30.2665 229.91 30.2678 229.896 30.2659C229.881 30.264 229.868 30.2589 229.855 30.2511C227.356 28.7119 224.623 28.0974 221.654 28.4078C219.623 28.6189 217.307 29.6881 217.25 32.0673Z" fill="white"/>
<path d="M7.0223 44.0689L4.35908 50.1158C4.35206 50.1321 4.34031 50.146 4.32533 50.1556C4.31035 50.1653 4.29283 50.1702 4.27501 50.1699H0.868685C0.853596 50.1699 0.838739 50.1662 0.825494 50.159C0.812249 50.1518 0.801048 50.1413 0.79293 50.1286C0.784812 50.1159 0.780038 50.1014 0.779059 50.0864C0.778079 50.0713 0.780921 50.0563 0.787323 50.0427L11.847 25.6575C11.8543 25.6421 11.8658 25.6291 11.8802 25.6199C11.8946 25.6108 11.9113 25.606 11.9284 25.6061H15.2859C15.3029 25.606 15.3197 25.6108 15.3341 25.6199C15.3485 25.6291 15.36 25.6421 15.3673 25.6575L26.4622 50.0427C26.4686 50.0563 26.4714 50.0713 26.4705 50.0864C26.4695 50.1014 26.4647 50.1159 26.4566 50.1286C26.4485 50.1413 26.4373 50.1518 26.424 50.159C26.4108 50.1662 26.3959 50.1699 26.3808 50.1699H22.904C22.8862 50.1702 22.8687 50.1653 22.8537 50.1556C22.8387 50.146 22.8269 50.1321 22.8199 50.1158L20.1594 44.0689C20.1524 44.0525 20.1407 44.0386 20.1257 44.029C20.1107 44.0193 20.0932 44.0144 20.0753 44.0147H7.10638C7.08855 44.0144 7.07103 44.0193 7.05605 44.029C7.04107 44.0386 7.02932 44.0525 7.0223 44.0689ZM8.31866 41.1158C8.31325 41.1286 8.31114 41.1426 8.3125 41.1565C8.31387 41.1703 8.31867 41.1836 8.32647 41.1952C8.33427 41.2067 8.34483 41.2162 8.3572 41.2226C8.36957 41.2291 8.38335 41.2324 8.39731 41.2322H18.7844C18.7984 41.2324 18.8122 41.2291 18.8245 41.2226C18.8369 41.2162 18.8474 41.2067 18.8553 41.1952C18.8631 41.1836 18.8679 41.1703 18.8692 41.1565C18.8706 41.1426 18.8685 41.1286 18.8631 41.1158L13.6668 29.3387C13.66 29.3244 13.6492 29.3123 13.6358 29.3038C13.6223 29.2953 13.6068 29.2908 13.5909 29.2908C13.575 29.2908 13.5594 29.2953 13.546 29.3038C13.5325 29.3123 13.5217 29.3244 13.5149 29.3387L8.31866 41.1158Z" fill="white"/>
<path d="M44.038 47.1898H42.5409C42.5249 47.1895 42.5093 47.1852 42.4955 47.1771C42.4817 47.1691 42.4703 47.1576 42.4623 47.1437L33.7431 32.6247C33.7325 32.6075 33.7167 32.5943 33.6979 32.587C33.6791 32.5797 33.6584 32.5787 33.6391 32.5842C33.6197 32.5898 33.6027 32.6015 33.5906 32.6176C33.5785 32.6337 33.572 32.6533 33.5722 32.6734V50.0779C33.5722 50.1023 33.5625 50.1257 33.5452 50.1429C33.5279 50.1602 33.5044 50.1699 33.48 50.1699H30.3069C30.2948 50.1699 30.2828 50.1675 30.2716 50.1629C30.2604 50.1583 30.2503 50.1515 30.2417 50.1429C30.2331 50.1344 30.2263 50.1242 30.2217 50.1131C30.2171 50.1019 30.2147 50.0899 30.2147 50.0779L30.212 25.6981C30.212 25.6737 30.2217 25.6503 30.239 25.633C30.2563 25.6158 30.2797 25.6061 30.3042 25.6061H33.0379C33.0539 25.6063 33.0696 25.6106 33.0833 25.6187C33.0971 25.6268 33.1086 25.6383 33.1166 25.6521L43.2813 42.7534C43.2895 42.7668 43.3011 42.7779 43.3149 42.7856C43.3286 42.7933 43.3442 42.7974 43.3599 42.7974C43.3757 42.7974 43.3912 42.7933 43.405 42.7856C43.4188 42.7779 43.4304 42.7668 43.4386 42.7534L53.4677 25.6521C53.4757 25.6383 53.4872 25.6268 53.5009 25.6187C53.5147 25.6106 53.5304 25.6063 53.5464 25.6061H56.2665C56.291 25.6061 56.3144 25.6158 56.3317 25.633C56.349 25.6503 56.3587 25.6737 56.3587 25.6981L56.4021 50.0779C56.4021 50.1023 56.3924 50.1257 56.3751 50.1429C56.3578 50.1602 56.3344 50.1699 56.3099 50.1699H53.1233C53.0988 50.1699 53.0754 50.1602 53.0581 50.1429C53.0408 50.1257 53.0311 50.1023 53.0311 50.0779L53.0175 32.5516C53.0171 32.5317 53.0102 32.5125 52.9979 32.4969C52.9856 32.4812 52.9686 32.4699 52.9493 32.4648C52.9301 32.4596 52.9097 32.4608 52.8912 32.4681C52.8727 32.4755 52.857 32.4886 52.8467 32.5056L44.1166 47.1437C44.1086 47.1576 44.0972 47.1691 44.0834 47.1771C44.0696 47.1852 44.0539 47.1895 44.038 47.1898Z" fill="white"/>
<path d="M66.4154 44.0689L63.7522 50.1158C63.7449 50.1319 63.7331 50.1456 63.7182 50.1552C63.7033 50.1648 63.6859 50.1699 63.6681 50.1699H60.2672C60.2518 50.1699 60.2367 50.166 60.2231 50.1587C60.2096 50.1513 60.1981 50.1407 60.1897 50.1278C60.1814 50.1149 60.1764 50.1001 60.1752 50.0847C60.1741 50.0694 60.1768 50.054 60.1832 50.04L71.2402 25.6602C71.2475 25.6441 71.2593 25.6304 71.2742 25.6208C71.2891 25.6112 71.3065 25.6061 71.3242 25.6061H74.6763C74.6941 25.6061 74.7114 25.6112 74.7263 25.6208C74.7413 25.6304 74.7531 25.6441 74.7604 25.6602L85.8526 50.04C85.859 50.054 85.8617 50.0694 85.8605 50.0847C85.8594 50.1001 85.8544 50.1149 85.8461 50.1278C85.8377 50.1407 85.8262 50.1513 85.8127 50.1587C85.7991 50.166 85.784 50.1699 85.7685 50.1699H82.2971C82.2794 50.1699 82.262 50.1648 82.2471 50.1552C82.2322 50.1456 82.2204 50.1319 82.2131 50.1158L79.5526 44.0689C79.5452 44.0527 79.5334 44.039 79.5185 44.0294C79.5036 44.0198 79.4862 44.0147 79.4685 44.0147H66.4995C66.4818 44.0147 66.4644 44.0198 66.4495 44.0294C66.4346 44.039 66.4227 44.0527 66.4154 44.0689ZM67.7118 41.1158C67.7064 41.1286 67.7043 41.1426 67.7056 41.1565C67.707 41.1703 67.7118 41.1836 67.7196 41.1952C67.7274 41.2067 67.738 41.2162 67.7503 41.2226C67.7627 41.2291 67.7765 41.2324 67.7904 41.2322H78.1776C78.1915 41.2324 78.2053 41.2291 78.2177 41.2226C78.23 41.2162 78.2406 41.2067 78.2484 41.1952C78.2562 41.1836 78.261 41.1703 78.2624 41.1565C78.2637 41.1426 78.2616 41.1286 78.2562 41.1158L73.0599 29.3387C73.0531 29.3244 73.0424 29.3123 73.0289 29.3038C73.0155 29.2953 72.9999 29.2908 72.984 29.2908C72.9681 29.2908 72.9525 29.2953 72.9391 29.3038C72.9256 29.3123 72.9149 29.3244 72.9081 29.3387L67.7118 41.1158Z" fill="white"/>
<path d="M93.2112 47.1248H106.343C106.371 47.1248 106.398 47.1359 106.418 47.1557C106.437 47.1755 106.449 47.2024 106.449 47.2304V50.0643C106.449 50.0923 106.437 50.1192 106.418 50.139C106.398 50.1588 106.371 50.1699 106.343 50.1699H89.7154C89.6873 50.1699 89.6604 50.1588 89.6406 50.139C89.6207 50.1192 89.6096 50.0923 89.6096 50.0643L89.6069 25.7116C89.6069 25.6836 89.618 25.6568 89.6379 25.637C89.6577 25.6172 89.6846 25.6061 89.7126 25.6061H92.9996C93.0277 25.6061 93.0546 25.6172 93.0744 25.637C93.0943 25.6568 93.1054 25.6836 93.1054 25.7116V47.0192C93.1054 47.0472 93.1165 47.0741 93.1364 47.0939C93.1562 47.1137 93.1831 47.1248 93.2112 47.1248Z" fill="white"/>
<path d="M113.989 40.3173V50.0779C113.989 50.0899 113.986 50.1019 113.982 50.1131C113.977 50.1242 113.97 50.1344 113.962 50.1429C113.953 50.1515 113.943 50.1583 113.932 50.1629C113.921 50.1675 113.909 50.1699 113.896 50.1699H110.585C110.573 50.1699 110.561 50.1675 110.55 50.1629C110.539 50.1583 110.528 50.1515 110.52 50.1429C110.511 50.1344 110.504 50.1242 110.5 50.1131C110.495 50.1019 110.493 50.0899 110.493 50.0779L110.49 25.6981C110.49 25.686 110.492 25.6741 110.497 25.6629C110.502 25.6517 110.509 25.6416 110.517 25.633C110.526 25.6245 110.536 25.6177 110.547 25.6131C110.558 25.6085 110.57 25.6061 110.582 25.6061H127.758C127.782 25.6061 127.806 25.6158 127.823 25.633C127.84 25.6503 127.85 25.6737 127.85 25.6981L127.853 28.5592C127.853 28.5836 127.843 28.607 127.826 28.6242C127.808 28.6415 127.785 28.6512 127.76 28.6512H114.081C114.056 28.6512 114.033 28.6609 114.016 28.6781C113.998 28.6954 113.989 28.7188 113.989 28.7432V37.145C113.989 37.1694 113.998 37.1928 114.016 37.2101C114.033 37.2273 114.056 37.237 114.081 37.237H126.239C126.263 37.237 126.287 37.2467 126.304 37.264C126.321 37.2812 126.331 37.3046 126.331 37.329V40.1332C126.331 40.1576 126.321 40.1811 126.304 40.1983C126.287 40.2156 126.263 40.2253 126.239 40.2253H114.081C114.056 40.2253 114.033 40.235 114.016 40.2522C113.998 40.2695 113.989 40.2929 113.989 40.3173Z" fill="white"/>
<path d="M136.148 25.6061H132.807C132.763 25.6061 132.728 25.6412 132.728 25.6846V50.0887C132.728 50.132 132.763 50.1672 132.807 50.1672H136.148C136.192 50.1672 136.227 50.132 136.227 50.0887V25.6846C136.227 25.6412 136.192 25.6061 136.148 25.6061Z" fill="white"/>
<path d="M160.562 28.6512H151.957C151.868 28.6512 151.824 28.6079 151.824 28.5213L151.826 25.736C151.826 25.6494 151.87 25.6061 151.957 25.6061H164.022C164.133 25.6061 164.189 25.6611 164.191 25.7712C164.203 31.3652 164.203 36.9483 164.191 42.5206C164.18 47.5227 161.506 50.4595 156.426 50.4081C153.524 50.3792 151.196 49.2478 149.442 47.0138C149.379 46.9362 149.38 46.8586 149.445 46.781L151.251 44.6671C151.315 44.5931 151.382 44.5904 151.452 44.6589C151.716 44.917 151.969 45.1804 152.211 45.4493C153.461 46.8388 154.979 47.4956 156.765 47.4198C160.735 47.252 160.703 43.8144 160.722 40.837C160.749 36.8256 160.747 32.8151 160.716 28.8055C160.716 28.7026 160.665 28.6512 160.562 28.6512Z" fill="white"/>
<path d="M174.829 47.1248H189.008C189.032 47.1248 189.056 47.1345 189.073 47.1517C189.09 47.169 189.1 47.1924 189.1 47.2168V50.0779C189.1 50.1023 189.09 50.1257 189.073 50.1429C189.056 50.1602 189.032 50.1699 189.008 50.1699H171.331C171.306 50.1699 171.283 50.1602 171.266 50.1429C171.248 50.1257 171.239 50.1023 171.239 50.0779V25.6981C171.239 25.6737 171.248 25.6503 171.266 25.633C171.283 25.6158 171.306 25.6061 171.331 25.6061H188.506C188.531 25.6061 188.554 25.6158 188.571 25.633C188.589 25.6503 188.598 25.6737 188.598 25.6981L188.604 28.5592C188.604 28.5836 188.594 28.607 188.577 28.6242C188.56 28.6415 188.536 28.6512 188.512 28.6512H174.829C174.817 28.6512 174.805 28.6536 174.794 28.6582C174.783 28.6628 174.773 28.6696 174.764 28.6781C174.756 28.6867 174.749 28.6968 174.744 28.708C174.74 28.7192 174.737 28.7311 174.737 28.7432V36.1272C174.737 36.1393 174.74 36.1513 174.744 36.1625C174.749 36.1736 174.756 36.1838 174.764 36.1923C174.773 36.2009 174.783 36.2076 174.794 36.2123C174.805 36.2169 174.817 36.2193 174.829 36.2193H186.988C187.012 36.2193 187.035 36.229 187.053 36.2462C187.07 36.2635 187.08 36.2869 187.08 36.3113V39.083C187.08 39.1074 187.07 39.1308 187.053 39.1481C187.035 39.1653 187.012 39.175 186.988 39.175H174.829C174.817 39.175 174.805 39.1774 174.794 39.1821C174.783 39.1867 174.773 39.1935 174.764 39.202C174.756 39.2105 174.749 39.2207 174.744 39.2319C174.74 39.243 174.737 39.255 174.737 39.2671V47.0328C174.737 47.0448 174.74 47.0568 174.744 47.068C174.749 47.0791 174.756 47.0893 174.764 47.0978C174.773 47.1064 174.783 47.1132 174.794 47.1178C174.805 47.1224 174.817 47.1248 174.829 47.1248Z" fill="white"/>
<path d="M203.203 28.7459V50.0751C203.203 50.1003 203.193 50.1244 203.175 50.1421C203.158 50.1599 203.133 50.1699 203.108 50.1699H199.835C199.81 50.1699 199.785 50.1599 199.768 50.1421C199.75 50.1244 199.74 50.1003 199.74 50.0751V28.7459C199.74 28.7208 199.73 28.6967 199.712 28.6789C199.694 28.6612 199.67 28.6512 199.645 28.6512H191.373C191.348 28.6512 191.324 28.6412 191.306 28.6234C191.288 28.6057 191.278 28.5816 191.278 28.5564V25.7008C191.278 25.6757 191.288 25.6516 191.306 25.6338C191.324 25.6161 191.348 25.6061 191.373 25.6061H211.529C211.554 25.6061 211.578 25.6161 211.596 25.6338C211.614 25.6516 211.624 25.6757 211.624 25.7008V28.5564C211.624 28.5816 211.614 28.6057 211.596 28.6234C211.578 28.6412 211.554 28.6512 211.529 28.6512H203.298C203.273 28.6512 203.249 28.6612 203.231 28.6789C203.213 28.6967 203.203 28.7208 203.203 28.7459Z" fill="white"/>
</svg>
