<svg width="32" height="33" viewBox="0 0 32 33" fill="none" xmlns="http://www.w3.org/2000/svg">
<path d="M22.8108 4.00004H9.18919C7.81831 3.99472 6.50151 4.54925 5.52839 5.54165C4.55526 6.53406 4.00549 7.88308 4 9.29204V22.708C4.00549 24.117 4.55526 25.466 5.52839 26.4584C6.50151 27.4508 7.81831 28.0054 9.18919 28H22.8108C24.1817 28.0054 25.4985 27.4508 26.4716 26.4584C27.4447 25.466 27.9945 24.117 28 22.708V9.29204C27.9945 7.88308 27.4447 6.53406 26.4716 5.54165C25.4985 4.54925 24.1817 3.99472 22.8108 4.00004ZM11.4595 9.56271C12.0522 9.56271 12.6316 9.74334 13.1244 10.0818C13.6172 10.4202 14.0013 10.9012 14.2281 11.464C14.4549 12.0268 14.5143 12.6461 14.3986 13.2436C14.283 13.841 13.9976 14.3898 13.5785 14.8206C13.1594 15.2513 12.6254 15.5447 12.0441 15.6635C11.4628 15.7824 10.8602 15.7214 10.3127 15.4883C9.76506 15.2551 9.29704 14.8604 8.96775 14.3539C8.63846 13.8474 8.4627 13.2519 8.4627 12.6427C8.46373 11.8262 8.77979 11.0434 9.34157 10.466C9.90335 9.8886 10.665 9.56376 11.4595 9.56271ZM16.48 22.2187C16.4192 22.2875 16.3452 22.3425 16.2625 22.3802C16.1798 22.4178 16.0904 22.4373 16 22.4374H6.91892C6.82811 22.4378 6.73823 22.4187 6.65508 22.3812C6.57193 22.3436 6.49737 22.2886 6.43623 22.2196C6.37509 22.1506 6.32872 22.0692 6.30013 21.9806C6.27154 21.892 6.26137 21.7983 6.27027 21.7054C6.3782 20.6153 6.85123 19.5977 7.60847 18.8265C8.36571 18.0553 9.36011 17.5784 10.4216 17.4774C11.1164 17.412 11.8155 17.412 12.5103 17.4774C13.5695 17.5813 14.5608 18.0595 15.3154 18.8304C16.07 19.6014 16.5412 20.6174 16.6486 21.7054C16.6571 21.7983 16.6464 21.892 16.6174 21.9804C16.5883 22.0689 16.5415 22.15 16.48 22.2187ZM25.0811 22.3334H22.4865C22.2284 22.3334 21.981 22.228 21.7985 22.0405C21.616 21.8529 21.5135 21.5986 21.5135 21.3334C21.5135 21.0682 21.616 20.8138 21.7985 20.6263C21.981 20.4387 22.2284 20.3334 22.4865 20.3334H25.0811C25.3391 20.3334 25.5866 20.4387 25.7691 20.6263C25.9515 20.8138 26.0541 21.0682 26.0541 21.3334C26.0541 21.5986 25.9515 21.8529 25.7691 22.0405C25.5866 22.228 25.3391 22.3334 25.0811 22.3334ZM25.0811 17H19.8919C19.6338 17 19.3864 16.8947 19.2039 16.7071C19.0214 16.5196 18.9189 16.2653 18.9189 16C18.9189 15.7348 19.0214 15.4805 19.2039 15.2929C19.3864 15.1054 19.6338 15 19.8919 15H25.0811C25.3391 15 25.5866 15.1054 25.7691 15.2929C25.9515 15.4805 26.0541 15.7348 26.0541 16C26.0541 16.2653 25.9515 16.5196 25.7691 16.7071C25.5866 16.8947 25.3391 17 25.0811 17ZM25.0811 11.6667H18.5946C18.3365 11.6667 18.0891 11.5613 17.9066 11.3738C17.7241 11.1863 17.6216 10.9319 17.6216 10.6667C17.6216 10.4015 17.7241 10.1471 17.9066 9.9596C18.0891 9.77206 18.3365 9.66671 18.5946 9.66671H25.0811C25.3391 9.66671 25.5866 9.77206 25.7691 9.9596C25.9515 10.1471 26.0541 10.4015 26.0541 10.6667C26.0541 10.9319 25.9515 11.1863 25.7691 11.3738C25.5866 11.5613 25.3391 11.6667 25.0811 11.6667Z" fill="#000435" fill-opacity="0.24"/>
</svg>
