<svg width="32" height="33" viewBox="0 0 32 33" fill="none" xmlns="http://www.w3.org/2000/svg">
<path d="M4 23.5C4 24.4283 4.31607 25.3185 4.87868 25.9749C5.44129 26.6313 6.20435 27 7 27H25C25.7957 27 26.5587 26.6313 27.1213 25.9749C27.6839 25.3185 28 24.4283 28 23.5V13.875H4V23.5ZM7.53571 18.75C7.53571 18.2527 7.70504 17.7758 8.00644 17.4242C8.30783 17.0725 8.71662 16.875 9.14286 16.875H11.7143C12.1405 16.875 12.5493 17.0725 12.8507 17.4242C13.1521 17.7758 13.3214 18.2527 13.3214 18.75V20C13.3214 20.4973 13.1521 20.9742 12.8507 21.3258C12.5493 21.6775 12.1405 21.875 11.7143 21.875H9.14286C8.71662 21.875 8.30783 21.6775 8.00644 21.3258C7.70504 20.9742 7.53571 20.4973 7.53571 20V18.75ZM25 5H7C6.20435 5 5.44129 5.36875 4.87868 6.02513C4.31607 6.6815 4 7.57174 4 8.5V10.125H28V8.5C28 7.57174 27.6839 6.6815 27.1213 6.02513C26.5587 5.36875 25.7957 5 25 5Z" fill="#000435" fill-opacity="0.24"/>
</svg>
