<svg width="32" height="33" viewBox="0 0 32 33" fill="none" xmlns="http://www.w3.org/2000/svg">
<path d="M24.112 5H7.888C5.74073 5 4 6.74073 4 8.888V25.112C4 27.2593 5.74073 29 7.888 29H24.112C26.2593 29 28 27.2593 28 25.112V8.888C28 6.74073 26.2593 5 24.112 5ZM16 8.22286C18.2918 8.22286 20.15 10.0807 20.15 12.3729C20.15 14.6651 18.2922 16.5229 16 16.5229C13.7078 16.5229 11.85 14.6651 11.85 12.3729C11.85 10.0807 13.7078 8.22286 16 8.22286ZM23.5757 21.7706C23.5757 23.9835 21.782 25.7771 19.5691 25.7771H12.4309C10.218 25.7771 8.42433 23.9835 8.42433 21.7706C8.42433 19.5577 10.218 17.7641 12.4309 17.7641H19.5687C21.7815 17.7641 23.5752 19.5577 23.5752 21.7706H23.5757Z" fill="#000435" fill-opacity="0.24"/>
</svg>
