<svg width="32" height="33" viewBox="0 0 32 33" fill="none" xmlns="http://www.w3.org/2000/svg">
<path d="M22.5455 5H9.45455C8.73824 5 8.02896 5.14109 7.36718 5.4152C6.70541 5.68932 6.1041 6.0911 5.5976 6.5976C4.57467 7.62053 4 9.00791 4 10.4545V23.5455C4 24.2618 4.14109 24.971 4.4152 25.6328C4.68932 26.2946 5.0911 26.8959 5.5976 27.4024C6.62053 28.4253 8.00791 29 9.45455 29H22.5455C23.2618 29 23.971 28.8589 24.6328 28.5848C25.2946 28.3107 25.8959 27.9089 26.4024 27.4024C26.9089 26.8959 27.3107 26.2946 27.5848 25.6328C27.8589 24.971 28 24.2618 28 23.5455V10.4545C28 9.73824 27.8589 9.02896 27.5848 8.36718C27.3107 7.70541 26.9089 7.1041 26.4024 6.5976C25.8959 6.0911 25.2946 5.68932 24.6328 5.4152C23.971 5.14109 23.2618 5 22.5455 5ZM19.8618 20.8618C19.7599 20.9629 19.639 21.0429 19.5061 21.0972C19.3732 21.1515 19.2308 21.179 19.0873 21.1782C18.9437 21.179 18.8014 21.1515 18.6685 21.0972C18.5356 21.0429 18.4147 20.9629 18.3127 20.8618L15.2255 17.7745C15.1243 17.6726 15.0444 17.5517 14.9901 17.4188C14.9358 17.2859 14.9083 17.1436 14.9091 17V10.4545C14.9091 10.1652 15.024 9.88774 15.2286 9.68316C15.4332 9.47857 15.7107 9.36364 16 9.36364C16.2893 9.36364 16.5668 9.47857 16.7714 9.68316C16.976 9.88774 17.0909 10.1652 17.0909 10.4545V16.5527L19.8618 19.3127C19.9641 19.4141 20.0452 19.5348 20.1006 19.6677C20.156 19.8007 20.1845 19.9433 20.1845 20.0873C20.1845 20.2313 20.156 20.3739 20.1006 20.5068C20.0452 20.6397 19.9641 20.7604 19.8618 20.8618Z" fill="#000435" fill-opacity="0.24"/>
</svg>
