<svg width="21" height="20" viewBox="0 0 21 20" fill="none" xmlns="http://www.w3.org/2000/svg">
<path d="M18.254 6.23184L14.7626 2.74122C14.6465 2.62511 14.5087 2.53301 14.357 2.47018C14.2054 2.40734 14.0428 2.375 13.8786 2.375C13.7144 2.375 13.5519 2.40734 13.4002 2.47018C13.2485 2.53301 13.1107 2.62511 12.9946 2.74122L3.36104 12.3748C3.24446 12.4905 3.15204 12.6281 3.08913 12.7798C3.02623 12.9315 2.99411 13.0942 2.99464 13.2584V16.7498C2.99464 17.0813 3.12633 17.3993 3.36075 17.6337C3.59517 17.8681 3.91311 17.9998 4.24463 17.9998H17.3696C17.5354 17.9998 17.6944 17.934 17.8116 17.8168C17.9288 17.6995 17.9946 17.5406 17.9946 17.3748C17.9946 17.2091 17.9288 17.0501 17.8116 16.9329C17.6944 16.8157 17.5354 16.7498 17.3696 16.7498H9.50401L18.254 7.99981C18.3701 7.88373 18.4622 7.74592 18.525 7.59425C18.5879 7.44257 18.6202 7.28 18.6202 7.11583C18.6202 6.95165 18.5879 6.78908 18.525 6.63741C18.4622 6.48573 18.3701 6.34792 18.254 6.23184ZM7.73604 16.7498H4.24463V13.2584L11.1196 6.3834L14.611 9.87481L7.73604 16.7498ZM15.4946 8.99122L12.004 5.49981L13.879 3.62481L17.3696 7.11622L15.4946 8.99122Z" fill="#000435" fill-opacity="0.6"/>
</svg>
