<svg width="20" height="20" viewBox="0 0 20 20" fill="none" xmlns="http://www.w3.org/2000/svg">
<path d="M5.69999 8.30001H5.59999H4.70001C4.0053 8.30001 3.3527 8.57033 2.86149 9.06156C2.37032 9.55277 2.1 10.2053 2.1 10.9V16.3C2.1 16.9946 2.37032 17.6472 2.86149 18.1384L2.79078 18.2091L2.8615 18.1384C3.35263 18.6296 4.00523 18.9 4.70001 18.9H15.5C16.1947 18.9 16.8473 18.6296 17.3384 18.1385L17.4092 18.2092L17.3384 18.1385C17.8297 17.6472 18.1 16.9946 18.1 16.3V10.9C18.1 10.2053 17.8297 9.55277 17.3385 9.06153C16.8472 8.57033 16.1946 8.30001 15.5 8.30001H14.6H14.5V8.20001V5.5C14.5 4.32445 14.0424 3.21984 13.2113 2.38874L13.282 2.31802L13.2113 2.38873C12.3801 1.55756 11.2755 1.1 10.1 1.1C8.92454 1.1 7.81994 1.55756 6.98872 2.38873C6.98872 2.38873 6.98872 2.38874 6.98872 2.38874M5.69999 8.30001L5.59999 5.5C5.59999 4.29803 6.06808 3.16799 6.91801 2.31802L6.98872 2.38874M5.69999 8.30001V8.20001V5.5C5.69999 4.32455 6.15754 3.21995 6.98872 2.38874M5.69999 8.30001L6.98872 2.38874M3.99291 10.1929L3.99292 10.1929C4.18163 10.0042 4.43307 9.9 4.70001 9.9H15.5C15.7669 9.9 16.0183 10.0042 16.2071 10.1929C16.3958 10.3816 16.5 10.6331 16.5 10.9V16.3C16.5 16.5669 16.3958 16.8184 16.2071 17.0071M3.99291 10.1929L16.1363 16.9364M3.99291 10.1929C3.80418 10.3816 3.70003 10.6331 3.70003 10.9V16.3C3.70003 16.5669 3.80419 16.8183 3.99291 17.0071L4.06363 16.9364M3.99291 10.1929L4.06363 16.9364M16.2071 17.0071L16.1363 16.9364M16.2071 17.0071C16.2071 17.0071 16.2071 17.0071 16.2071 17.0071L16.1363 16.9364M16.2071 17.0071C16.0184 17.1959 15.7669 17.3 15.5 17.3H4.70001C4.43308 17.3 4.18164 17.1959 3.99291 17.0071L4.06363 16.9364M16.1363 16.9364C15.9664 17.1064 15.7404 17.2 15.5 17.2H4.70001C4.45959 17.2 4.23358 17.1064 4.06363 16.9364M7.30001 8.20001L7.30001 8.30001H7.40001H12.8H12.9V8.20001V5.5C12.9 4.75225 12.6086 4.04878 12.0799 3.52013C11.5511 2.99138 10.8477 2.70003 10.1 2.70003C9.35227 2.70003 8.6488 2.99142 8.12008 3.52013C7.59137 4.04884 7.29998 4.75231 7.29998 5.5L7.30001 8.20001ZM10.1 15.3C9.65815 15.3 9.29997 14.9418 9.29997 14.5V12.7C9.29997 12.2581 9.65814 11.9 10.1 11.9C10.5418 11.9 10.9 12.2582 10.9 12.7V14.5C10.9 14.9418 10.5418 15.3 10.1 15.3Z" fill="#000435" fill-opacity="0.6" stroke="#FAFAFA" stroke-width="0.2"/>
</svg>
