<svg width="21" height="20" viewBox="0 0 21 20" fill="none" xmlns="http://www.w3.org/2000/svg">
<g clip-path="url(#clip0_255_1739)">
<path d="M8.08789 9.925C5.88931 9.925 4.16289 8.19858 4.16289 6C4.16289 3.80142 5.88931 2.075 8.08789 2.075C10.2865 2.075 12.0129 3.80142 12.0129 6C12.0129 8.19858 10.2865 9.925 8.08789 9.925ZM8.08789 3.525C6.68647 3.525 5.61289 4.59858 5.61289 6C5.61289 7.40142 6.68647 8.475 8.08789 8.475C9.48931 8.475 10.5629 7.40142 10.5629 6C10.5629 4.59858 9.48931 3.525 8.08789 3.525Z" fill="#000435" fill-opacity="0.6" stroke="white" stroke-width="0.15"/>
<path d="M3.73815 12.8558L3.73843 12.8562L3.74372 12.8503C4.44778 12.068 5.46652 11.6751 6.48798 11.6751H9.68798C10.7094 11.6751 11.7282 12.068 12.4322 12.8503C13.144 13.6411 13.613 14.584 13.613 15.6001V17.2001C13.613 17.4231 13.539 17.603 13.4149 17.7271C13.2909 17.8511 13.1109 17.9251 12.888 17.9251C12.665 17.9251 12.4851 17.8511 12.361 17.7271C12.237 17.603 12.163 17.4231 12.163 17.2001V15.6001C12.163 14.9454 11.9185 14.2844 11.4212 13.8669C11.0036 13.3696 10.3427 13.1251 9.68798 13.1251H6.48798C5.8333 13.1251 5.17231 13.3696 4.75473 13.8669C4.25746 14.2844 4.01298 14.9454 4.01298 15.6001V17.2001C4.01298 17.4231 3.93898 17.603 3.81494 17.7271C3.6909 17.8511 3.51093 17.9251 3.28798 17.9251C3.06502 17.9251 2.88505 17.8511 2.76101 17.7271C2.63697 17.603 2.56298 17.4231 2.56298 17.2001V15.6001C2.56298 14.5786 2.95587 13.5599 3.73815 12.8558Z" fill="#000435" fill-opacity="0.6" stroke="white" stroke-width="0.15"/>
<path d="M13.4628 8.39378L13.4629 8.39436L13.4718 8.39139C13.958 8.22933 14.4568 7.9823 14.7905 7.48184C15.1107 7.00153 15.3631 6.58483 15.3631 6.00024C15.3631 5.4249 15.1983 4.92795 14.8666 4.51339C14.5369 4.10126 14.0444 3.77331 13.5518 3.60909L13.5521 3.60821L13.5404 3.60626C13.1099 3.5345 12.8883 3.10144 12.9616 2.73495C12.9969 2.55869 13.122 2.39517 13.2872 2.29424C13.4519 2.19355 13.647 2.16061 13.8202 2.22988L13.82 2.23033L13.8283 2.2326C14.6927 2.46833 15.3988 2.9391 15.9489 3.64629C16.4967 4.3507 16.7331 5.21357 16.7331 6.08024C16.7331 6.94174 16.4198 7.80658 15.9472 8.51635C15.4115 9.20421 14.7279 9.6681 13.8945 9.90928C13.8942 9.90883 13.8939 9.90839 13.8935 9.90795C13.873 9.88152 13.846 9.86715 13.8218 9.85909C13.7799 9.84514 13.7292 9.8452 13.6936 9.84524C13.6917 9.84524 13.6899 9.84524 13.6881 9.84524C13.3966 9.84524 13.0333 9.62386 12.9616 9.26553C12.9254 9.08444 12.9615 8.88246 13.0536 8.71666C13.1457 8.55102 13.2893 8.42848 13.4628 8.39378Z" fill="#000435" fill-opacity="0.6" stroke="white" stroke-width="0.15"/>
<path d="M15.1517 13.2087L15.1519 13.2081L15.1427 13.2063C14.9664 13.1711 14.8029 13.0459 14.702 12.8807C14.6013 12.716 14.5683 12.5209 14.6376 12.3477L14.6388 12.3482L14.6415 12.3346C14.6768 12.1583 14.8019 11.9948 14.9671 11.8938C15.1318 11.7932 15.3269 11.7602 15.5001 11.8295L15.4999 11.8299L15.5082 11.8322C16.3726 12.0679 17.0787 12.5387 17.6288 13.2459C18.1769 13.9506 18.4136 14.7346 18.493 15.6033V17.1936C18.4545 17.4176 18.3614 17.5994 18.2268 17.725C18.0916 17.8512 17.9103 17.9249 17.688 17.9249C17.465 17.9249 17.285 17.8509 17.161 17.7268C17.0369 17.6028 16.963 17.4228 16.963 17.1999V15.5999C16.963 15.0245 16.7982 14.5276 16.4665 14.113C16.1368 13.7009 15.6443 13.3729 15.1517 13.2087Z" fill="#000435" fill-opacity="0.6" stroke="white" stroke-width="0.15"/>
</g>
<defs>
<clipPath id="clip0_255_1739">
<rect width="16" height="16" fill="white" transform="translate(2.49463 2)"/>
</clipPath>
</defs>
</svg>
