<svg width="20" height="20" viewBox="0 0 20 20" fill="none" xmlns="http://www.w3.org/2000/svg">
<path d="M10.077 2.7523V2.75229C10.0769 2.37956 10.379 2.07744 10.7517 2.07744C13.1546 2.07744 15.2094 2.88133 16.6652 4.33713C18.121 5.79293 18.9249 7.84773 18.9249 10.2506C18.9249 10.6233 18.6228 10.9254 18.2501 10.9254C17.8774 10.9254 17.5753 10.6233 17.5753 10.2506C17.5753 8.15444 16.8794 6.46009 15.7109 5.29149C14.5423 4.12289 12.848 3.42712 10.7518 3.42712C10.3791 3.42712 10.077 3.12499 10.077 2.7523Z" fill="#000435" fill-opacity="0.6" stroke="white" stroke-width="0.15"/>
<path d="M15.9256 10.2508C15.9256 10.6235 15.6235 10.9256 15.2508 10.9256C14.8781 10.9256 14.5759 10.6235 14.5759 10.2508C14.5759 9.12775 14.1847 8.17072 13.5083 7.49428C12.8318 6.81784 11.8748 6.42659 10.7518 6.42659C10.3791 6.42659 10.077 6.12447 10.077 5.75177C10.077 5.37908 10.3791 5.07695 10.7518 5.07695C13.7489 5.07692 15.9256 7.25364 15.9256 10.2508Z" fill="#000435" fill-opacity="0.6" stroke="white" stroke-width="0.15"/>
<mask id="path-3-inside-1_436_7095" fill="white">
<path fill-rule="evenodd" clip-rule="evenodd" d="M2.76353 3.04385C3.32672 2.56411 4.19857 1.97228 5.13945 2.00364L5.16704 2.00455L5.1945 2.0075C5.7162 2.06349 6.18979 2.32384 6.59561 2.71574L6.59814 2.71817C6.87595 2.98898 7.36634 3.56201 7.79269 4.11756C8.00871 4.39906 8.21988 4.69104 8.38705 4.9524C8.47046 5.08284 8.54852 5.21429 8.61196 5.33886C8.66918 5.45119 8.73786 5.60222 8.77154 5.76303C8.94893 6.5869 8.5771 7.23585 8.36796 7.60097C8.35977 7.61524 8.35187 7.62908 8.3442 7.64251L8.32698 7.67277C8.26614 7.7779 8.18853 7.89516 8.12115 7.99702L8.1137 8.00826C7.97198 8.22249 7.84882 8.41138 7.77006 8.57984C7.74735 8.62842 7.73326 8.66529 7.72478 8.69141C8.01036 9.36755 8.4107 10.0375 8.89561 10.6645C9.47988 11.3609 10.379 12.2249 10.8362 12.5468C11.2989 12.8729 11.7768 13.1457 12.2624 13.3556C12.2927 13.3467 12.3368 13.3306 12.3963 13.3032C12.5733 13.2214 12.7693 13.0948 12.9849 12.9538L12.9949 12.9472C13.0898 12.8851 13.1974 12.8147 13.2934 12.7587L13.2986 12.7557L13.3295 12.7383C13.3424 12.7311 13.3557 12.7237 13.3694 12.7159C13.7407 12.5065 14.3891 12.1407 15.2209 12.3151L15.2228 12.3155L15.2191 12.3148L15.2209 12.3152C15.3791 12.3479 15.529 12.4147 15.6413 12.4707C15.7649 12.5323 15.8958 12.6082 16.0263 12.6895C16.2877 12.8524 16.5806 13.0583 16.8636 13.2694C17.4195 13.684 17.9974 14.164 18.2737 14.4426L18.2713 14.4403L18.2762 14.4451L18.2737 14.4426C18.6668 14.8336 18.953 15.3148 18.9965 15.8761L18.9976 15.8895L18.9982 15.9028C19.0366 16.8263 18.4602 17.6745 17.9858 18.226C17.505 18.785 16.956 19.2353 16.669 19.4166C16.5964 19.4625 16.7197 19.3803 16.669 19.4166C15.5279 20.2327 14.1012 20.1326 12.6381 19.4741C12.6034 19.4585 12.6677 19.4862 12.6381 19.4741C11.0738 18.8369 9.27152 17.5392 7.58068 16.0245C6.97704 15.4837 5.81412 14.344 5.44788 13.9247C5.45034 13.9274 5.45284 13.9301 5.4553 13.9327L5.43987 13.9155C5.4425 13.9185 5.44517 13.9216 5.44788 13.9247C3.7421 12.0758 2.25926 10.0451 1.54023 8.3428C1.52428 8.30499 1.55503 8.37433 1.54023 8.3428C1.19318 7.60307 1.00391 6.87698 1.00391 6.19092C1.00391 5.50739 1.19719 4.87715 1.58044 4.33305C1.57211 4.34648 1.56438 4.35952 1.55718 4.37207L1.59949 4.30631C1.5931 4.3152 1.58674 4.32413 1.58044 4.33305C1.67032 4.18772 1.82458 3.99236 1.99692 3.79753C2.19733 3.57097 2.4602 3.30226 2.76353 3.04385ZM2.86002 5.11521C2.85865 5.11728 2.85903 5.11647 2.85903 5.11647L2.8396 5.15046L2.81671 5.18224C2.61247 5.46602 2.50354 5.79642 2.50354 6.19089C2.50354 6.60655 2.62041 7.11782 2.90339 7.71748L2.91028 7.7321L2.91654 7.74697C3.53627 9.22176 4.89285 11.1127 6.55705 12.9154L6.56489 12.924L6.57248 12.9326C6.86963 13.2752 7.9924 14.38 8.58114 14.9074C10.229 16.3836 11.8847 17.5506 13.2149 18.0897L13.2288 18.0953L13.2424 18.1014C14.4733 18.6583 15.2776 18.5751 15.8095 18.1873L15.8357 18.1682L15.8635 18.1514C15.9804 18.0807 16.4337 17.7305 16.8488 17.248C17.2807 16.7458 17.5057 16.2897 17.5001 15.9796C17.4887 15.8775 17.4289 15.7172 17.2148 15.5046L17.21 15.4998C17.0138 15.3015 16.5047 14.8725 15.967 14.4714C15.7024 14.2741 15.4461 14.0949 15.233 13.9621C15.1262 13.8956 15.0386 13.8458 14.9719 13.8125C14.9306 13.792 14.908 13.7831 14.9011 13.7804C14.6632 13.7345 14.468 13.8188 14.0637 14.0458L14.0435 14.0572C13.9858 14.0911 13.9115 14.1395 13.806 14.2085L13.789 14.2196C13.5935 14.3476 13.3121 14.5319 13.0255 14.6644C12.773 14.7811 12.295 14.9675 11.8119 14.7923L11.7959 14.7864L11.7802 14.78C11.1489 14.5181 10.5435 14.175 9.97245 13.7728C9.36885 13.3477 8.36835 12.3716 7.73635 11.616L7.72749 11.6054L7.71902 11.5945C7.1345 10.8409 6.64348 10.0161 6.29653 9.16215L6.29249 9.15223L6.28877 9.14218C6.10941 8.66181 6.29741 8.18864 6.4115 7.94461C6.54166 7.66624 6.72355 7.39141 6.85128 7.19838C6.85522 7.19247 6.85908 7.1866 6.86288 7.18084C6.93954 7.06495 6.99212 6.98496 7.02786 6.92345L7.04133 6.89986C7.27302 6.49337 7.35155 6.30733 7.3074 6.08769C7.30462 6.08084 7.29584 6.05901 7.2757 6.0195C7.24209 5.95353 7.19169 5.86668 7.12371 5.76043C6.98815 5.54845 6.80492 5.29366 6.60299 5.03057C6.19429 4.498 5.75546 3.99131 5.55262 3.79325C5.34138 3.5896 5.17348 3.52074 5.06044 3.50208C4.72502 3.50542 4.24676 3.75037 3.73609 4.1854C3.49501 4.39077 3.28208 4.60816 3.12025 4.79111C3.03962 4.88225 2.97425 4.96196 2.92641 5.0241C2.8848 5.07809 2.86508 5.10769 2.86002 5.11521Z"/>
</mask>
<path fill-rule="evenodd" clip-rule="evenodd" d="M2.76353 3.04385C3.32672 2.56411 4.19857 1.97228 5.13945 2.00364L5.16704 2.00455L5.1945 2.0075C5.7162 2.06349 6.18979 2.32384 6.59561 2.71574L6.59814 2.71817C6.87595 2.98898 7.36634 3.56201 7.79269 4.11756C8.00871 4.39906 8.21988 4.69104 8.38705 4.9524C8.47046 5.08284 8.54852 5.21429 8.61196 5.33886C8.66918 5.45119 8.73786 5.60222 8.77154 5.76303C8.94893 6.5869 8.5771 7.23585 8.36796 7.60097C8.35977 7.61524 8.35187 7.62908 8.3442 7.64251L8.32698 7.67277C8.26614 7.7779 8.18853 7.89516 8.12115 7.99702L8.1137 8.00826C7.97198 8.22249 7.84882 8.41138 7.77006 8.57984C7.74735 8.62842 7.73326 8.66529 7.72478 8.69141C8.01036 9.36755 8.4107 10.0375 8.89561 10.6645C9.47988 11.3609 10.379 12.2249 10.8362 12.5468C11.2989 12.8729 11.7768 13.1457 12.2624 13.3556C12.2927 13.3467 12.3368 13.3306 12.3963 13.3032C12.5733 13.2214 12.7693 13.0948 12.9849 12.9538L12.9949 12.9472C13.0898 12.8851 13.1974 12.8147 13.2934 12.7587L13.2986 12.7557L13.3295 12.7383C13.3424 12.7311 13.3557 12.7237 13.3694 12.7159C13.7407 12.5065 14.3891 12.1407 15.2209 12.3151L15.2228 12.3155L15.2191 12.3148L15.2209 12.3152C15.3791 12.3479 15.529 12.4147 15.6413 12.4707C15.7649 12.5323 15.8958 12.6082 16.0263 12.6895C16.2877 12.8524 16.5806 13.0583 16.8636 13.2694C17.4195 13.684 17.9974 14.164 18.2737 14.4426L18.2713 14.4403L18.2762 14.4451L18.2737 14.4426C18.6668 14.8336 18.953 15.3148 18.9965 15.8761L18.9976 15.8895L18.9982 15.9028C19.0366 16.8263 18.4602 17.6745 17.9858 18.226C17.505 18.785 16.956 19.2353 16.669 19.4166C16.5964 19.4625 16.7197 19.3803 16.669 19.4166C15.5279 20.2327 14.1012 20.1326 12.6381 19.4741C12.6034 19.4585 12.6677 19.4862 12.6381 19.4741C11.0738 18.8369 9.27152 17.5392 7.58068 16.0245C6.97704 15.4837 5.81412 14.344 5.44788 13.9247C5.45034 13.9274 5.45284 13.9301 5.4553 13.9327L5.43987 13.9155C5.4425 13.9185 5.44517 13.9216 5.44788 13.9247C3.7421 12.0758 2.25926 10.0451 1.54023 8.3428C1.52428 8.30499 1.55503 8.37433 1.54023 8.3428C1.19318 7.60307 1.00391 6.87698 1.00391 6.19092C1.00391 5.50739 1.19719 4.87715 1.58044 4.33305C1.57211 4.34648 1.56438 4.35952 1.55718 4.37207L1.59949 4.30631C1.5931 4.3152 1.58674 4.32413 1.58044 4.33305C1.67032 4.18772 1.82458 3.99236 1.99692 3.79753C2.19733 3.57097 2.4602 3.30226 2.76353 3.04385ZM2.86002 5.11521C2.85865 5.11728 2.85903 5.11647 2.85903 5.11647L2.8396 5.15046L2.81671 5.18224C2.61247 5.46602 2.50354 5.79642 2.50354 6.19089C2.50354 6.60655 2.62041 7.11782 2.90339 7.71748L2.91028 7.7321L2.91654 7.74697C3.53627 9.22176 4.89285 11.1127 6.55705 12.9154L6.56489 12.924L6.57248 12.9326C6.86963 13.2752 7.9924 14.38 8.58114 14.9074C10.229 16.3836 11.8847 17.5506 13.2149 18.0897L13.2288 18.0953L13.2424 18.1014C14.4733 18.6583 15.2776 18.5751 15.8095 18.1873L15.8357 18.1682L15.8635 18.1514C15.9804 18.0807 16.4337 17.7305 16.8488 17.248C17.2807 16.7458 17.5057 16.2897 17.5001 15.9796C17.4887 15.8775 17.4289 15.7172 17.2148 15.5046L17.21 15.4998C17.0138 15.3015 16.5047 14.8725 15.967 14.4714C15.7024 14.2741 15.4461 14.0949 15.233 13.9621C15.1262 13.8956 15.0386 13.8458 14.9719 13.8125C14.9306 13.792 14.908 13.7831 14.9011 13.7804C14.6632 13.7345 14.468 13.8188 14.0637 14.0458L14.0435 14.0572C13.9858 14.0911 13.9115 14.1395 13.806 14.2085L13.789 14.2196C13.5935 14.3476 13.3121 14.5319 13.0255 14.6644C12.773 14.7811 12.295 14.9675 11.8119 14.7923L11.7959 14.7864L11.7802 14.78C11.1489 14.5181 10.5435 14.175 9.97245 13.7728C9.36885 13.3477 8.36835 12.3716 7.73635 11.616L7.72749 11.6054L7.71902 11.5945C7.1345 10.8409 6.64348 10.0161 6.29653 9.16215L6.29249 9.15223L6.28877 9.14218C6.10941 8.66181 6.29741 8.18864 6.4115 7.94461C6.54166 7.66624 6.72355 7.39141 6.85128 7.19838C6.85522 7.19247 6.85908 7.1866 6.86288 7.18084C6.93954 7.06495 6.99212 6.98496 7.02786 6.92345L7.04133 6.89986C7.27302 6.49337 7.35155 6.30733 7.3074 6.08769C7.30462 6.08084 7.29584 6.05901 7.2757 6.0195C7.24209 5.95353 7.19169 5.86668 7.12371 5.76043C6.98815 5.54845 6.80492 5.29366 6.60299 5.03057C6.19429 4.498 5.75546 3.99131 5.55262 3.79325C5.34138 3.5896 5.17348 3.52074 5.06044 3.50208C4.72502 3.50542 4.24676 3.75037 3.73609 4.1854C3.49501 4.39077 3.28208 4.60816 3.12025 4.79111C3.03962 4.88225 2.97425 4.96196 2.92641 5.0241C2.8848 5.07809 2.86508 5.10769 2.86002 5.11521Z" fill="#000435" fill-opacity="0.6"/>
<path d="M12.2296 13.4395L12.2316 13.4393L12.2161 13.2901L12.2141 13.2903L12.2296 13.4395ZM7.78793 8.74374L7.78814 8.74199L7.63921 8.72413L7.639 8.72588L7.78793 8.74374ZM2.76353 3.04385L2.66627 2.92966L2.66626 2.92967L2.76353 3.04385ZM5.13945 2.00364L5.13446 2.15355L5.13449 2.15355L5.13945 2.00364ZM5.16704 2.00455L5.18313 1.855L5.17201 1.85463L5.16704 2.00455ZM5.1945 2.0075L5.17845 2.15664L5.17849 2.15665L5.1945 2.0075ZM6.59561 2.71574L6.49141 2.82364L6.49182 2.82403L6.59561 2.71574ZM6.59814 2.71817L6.70285 2.61075L6.70193 2.60987L6.59814 2.71817ZM7.79269 4.11756L7.91169 4.02624L7.91169 4.02624L7.79269 4.11756ZM8.38705 4.9524L8.51342 4.87159L8.51341 4.87158L8.38705 4.9524ZM8.61196 5.33886L8.4783 5.40693L8.4783 5.40694L8.61196 5.33886ZM8.77154 5.76303L8.62472 5.79377L8.6249 5.7946L8.77154 5.76303ZM8.36796 7.60097L8.49806 7.67563L8.49812 7.67552L8.36796 7.60097ZM8.3442 7.64251L8.21392 7.56816L8.21384 7.56832L8.3442 7.64251ZM8.32698 7.67277L8.45681 7.74791L8.45735 7.74696L8.32698 7.67277ZM8.12115 7.99702L8.2462 8.07986L8.24626 8.07977L8.12115 7.99702ZM8.1137 8.00826L7.98865 7.92542L7.9886 7.9255L8.1137 8.00826ZM7.77006 8.57984L7.63417 8.51631L7.63417 8.51633L7.77006 8.57984ZM7.72478 8.69141L7.5821 8.64513L7.56486 8.69829L7.5866 8.74977L7.72478 8.69141ZM8.89561 10.6645L8.77687 10.7563L8.78069 10.7609L8.89561 10.6645ZM10.8362 12.5468L10.9226 12.4242L10.9225 12.4242L10.8362 12.5468ZM12.2624 13.3556L12.2028 13.4933L12.2525 13.5147L12.3044 13.4996L12.2624 13.3556ZM12.3963 13.3032L12.4591 13.4394L12.4593 13.4393L12.3963 13.3032ZM12.9849 12.9538L13.067 13.0793L13.0677 13.0788L12.9849 12.9538ZM12.9949 12.9472L12.9128 12.8216L12.9121 12.8221L12.9949 12.9472ZM13.2934 12.7587L13.3689 12.8883L13.369 12.8883L13.2934 12.7587ZM13.2986 12.7557L13.2252 12.6248L13.223 12.6261L13.2986 12.7557ZM13.3295 12.7383L13.4029 12.8692L13.4032 12.869L13.3295 12.7383ZM13.3694 12.7159L13.2957 12.5853L13.2954 12.5854L13.3694 12.7159ZM15.2209 12.3151L15.1901 12.4619L15.1905 12.462L15.2209 12.3151ZM15.2228 12.3155L15.1933 12.4626L15.2532 12.1686L15.2228 12.3155ZM15.2191 12.3148L15.2485 12.1677L15.1874 12.4614L15.2191 12.3148ZM15.2209 12.3152L15.1892 12.4618L15.1905 12.462L15.2209 12.3152ZM15.6413 12.4707L15.7083 12.3365L15.7082 12.3364L15.6413 12.4707ZM16.0263 12.6895L16.1056 12.5622L16.1056 12.5622L16.0263 12.6895ZM16.8636 13.2694L16.7739 13.3896L16.7739 13.3896L16.8636 13.2694ZM18.2737 14.4426L18.1676 14.5486L18.3802 14.337L18.2737 14.4426ZM18.2713 14.4403L18.3774 14.3342L18.1653 14.5463L18.2713 14.4403ZM18.2762 14.4451L18.1701 14.5512L18.3822 14.339L18.2762 14.4451ZM18.2737 14.4426L18.3795 14.3363L18.1676 14.5487L18.2737 14.4426ZM18.9965 15.8761L18.847 15.8877L18.847 15.8879L18.9965 15.8761ZM18.9976 15.8895L19.1475 15.8828L19.1471 15.8777L18.9976 15.8895ZM18.9982 15.9028L19.148 15.8966L19.148 15.8961L18.9982 15.9028ZM17.9858 18.226L18.0996 18.3238L18.0996 18.3238L17.9858 18.226ZM7.58068 16.0245L7.48059 16.1363L7.48059 16.1363L7.58068 16.0245ZM5.44788 13.9247L5.55887 13.8238L5.33491 14.0234L5.44788 13.9247ZM5.4553 13.9327L5.34633 14.0358L5.56712 13.8327L5.4553 13.9327ZM5.43987 13.9155L5.55169 13.8155L5.32625 14.0134L5.43987 13.9155ZM5.44788 13.9247L5.33763 14.0264L5.5602 13.8253L5.44788 13.9247ZM1.55718 4.37207L1.4271 4.29737L1.68331 4.45324L1.55718 4.37207ZM1.59949 4.30631L1.72563 4.38748L1.47773 4.21871L1.59949 4.30631ZM1.99692 3.79753L1.88456 3.69815L1.88456 3.69815L1.99692 3.79753ZM2.86002 5.11521L2.73556 5.03146L2.73488 5.03249L2.86002 5.11521ZM2.85903 5.11647L2.99435 5.1812L2.72882 5.04201L2.85903 5.11647ZM2.8396 5.15046L2.96132 5.23812L2.96591 5.23174L2.96981 5.22493L2.8396 5.15046ZM2.81671 5.18224L2.69499 5.09458L2.69497 5.09461L2.81671 5.18224ZM2.90339 7.71748L3.03908 7.65355L3.03904 7.65347L2.90339 7.71748ZM2.91028 7.7321L3.04866 7.67387L3.04597 7.66817L2.91028 7.7321ZM2.91654 7.74697L3.05482 7.68886L3.05479 7.68879L2.91654 7.74697ZM6.55705 12.9154L6.66757 12.814L6.66727 12.8137L6.55705 12.9154ZM6.56489 12.924L6.67784 12.8252L6.67541 12.8225L6.56489 12.924ZM6.57248 12.9326L6.68579 12.8343L6.6854 12.8339L6.57248 12.9326ZM8.58114 14.9074L8.68123 14.7957L8.68122 14.7957L8.58114 14.9074ZM13.2149 18.0897L13.1586 18.2288L13.1592 18.229L13.2149 18.0897ZM13.2288 18.0953L13.2908 17.9585L13.2845 17.956L13.2288 18.0953ZM13.2424 18.1014L13.1805 18.2381L13.1806 18.2381L13.2424 18.1014ZM15.8095 18.1873L15.7211 18.0661L15.7211 18.0661L15.8095 18.1873ZM15.8357 18.1682L15.7579 18.0393L15.7474 18.0469L15.8357 18.1682ZM15.8635 18.1514L15.9411 18.2798L15.9411 18.2798L15.8635 18.1514ZM16.8488 17.248L16.9625 17.3458L16.9625 17.3458L16.8488 17.248ZM17.5001 15.9796L17.6507 15.9769L17.6492 15.963L17.5001 15.9796ZM17.2148 15.5046L17.1087 15.6106L17.1091 15.611L17.2148 15.5046ZM17.21 15.4998L17.1034 15.6053L17.1039 15.6058L17.21 15.4998ZM15.967 14.4714L15.8773 14.5917L15.8773 14.5917L15.967 14.4714ZM15.233 13.9621L15.3123 13.8348L15.3122 13.8347L15.233 13.9621ZM14.9719 13.8125L15.0388 13.6783L15.0387 13.6783L14.9719 13.8125ZM14.9011 13.7804L14.9559 13.6408L14.9431 13.6357L14.9295 13.6331L14.9011 13.7804ZM14.0637 14.0458L13.9903 13.915L13.9902 13.9151L14.0637 14.0458ZM14.0435 14.0572L13.9699 13.9265L13.9675 13.9279L14.0435 14.0572ZM13.806 14.2085L13.7238 14.083L13.7237 14.0831L13.806 14.2085ZM13.789 14.2196L13.8712 14.3451L13.8713 14.3451L13.789 14.2196ZM13.0255 14.6644L12.9626 14.5282L12.9626 14.5282L13.0255 14.6644ZM11.8119 14.7923L11.7604 14.9331L11.7607 14.9333L11.8119 14.7923ZM11.7959 14.7864L11.7389 14.9253L11.7444 14.9273L11.7959 14.7864ZM11.7802 14.78L11.7228 14.9186L11.7233 14.9188L11.7802 14.78ZM9.97245 13.7728L9.88607 13.8955L9.97245 13.7728ZM7.73635 11.616L7.85141 11.5198L7.85137 11.5197L7.73635 11.616ZM7.72749 11.6054L7.60885 11.6974L7.61247 11.7017L7.72749 11.6054ZM7.71902 11.5945L7.83758 11.5026L7.83755 11.5026L7.71902 11.5945ZM6.29653 9.16215L6.4355 9.10569L6.43543 9.1055L6.29653 9.16215ZM6.29249 9.15223L6.15177 9.20439L6.1536 9.20888L6.29249 9.15223ZM6.28877 9.14218L6.42942 9.09005L6.42929 9.08971L6.28877 9.14218ZM6.4115 7.94461L6.27562 7.88108L6.27562 7.88108L6.4115 7.94461ZM6.85128 7.19838L6.72647 7.11517L6.72619 7.1156L6.85128 7.19838ZM6.86288 7.18084L6.73777 7.09808L6.7376 7.09834L6.86288 7.18084ZM7.02786 6.92345L7.15756 6.99882L7.15814 6.99781L7.02786 6.92345ZM7.04133 6.89986L7.1716 6.97422L7.17164 6.97414L7.04133 6.89986ZM7.3074 6.08769L7.45446 6.05813L7.45169 6.04437L7.44642 6.03137L7.3074 6.08769ZM7.2757 6.0195L7.14203 6.08758L7.14206 6.08763L7.2757 6.0195ZM7.12371 5.76043L6.99735 5.84124L6.99736 5.84126L7.12371 5.76043ZM6.60299 5.03057L6.48399 5.12189L6.484 5.1219L6.60299 5.03057ZM5.55262 3.79325L5.65742 3.68592L5.65673 3.68526L5.55262 3.79325ZM5.06044 3.50208L5.08488 3.35408L5.072 3.35196L5.05895 3.35209L5.06044 3.50208ZM3.73609 4.1854L3.83336 4.29958L3.83336 4.29958L3.73609 4.1854ZM3.12025 4.79111L3.2326 4.8905L3.23261 4.89049L3.12025 4.79111ZM2.92641 5.0241L3.04521 5.11568L3.04527 5.1156L2.92641 5.0241ZM2.8608 3.15804C3.42016 2.68156 4.25397 2.12421 5.13446 2.15355L5.14445 1.85372C4.14317 1.82035 3.23327 2.44666 2.66627 2.92966L2.8608 3.15804ZM5.13449 2.15355L5.16208 2.15447L5.17201 1.85463L5.14442 1.85372L5.13449 2.15355ZM5.151 2.15369L5.17845 2.15664L5.21054 1.85836L5.18308 1.85541L5.151 2.15369ZM5.17849 2.15665C5.65921 2.20824 6.10324 2.44878 6.49141 2.82364L6.69981 2.60784C6.27634 2.19889 5.77319 1.91875 5.2105 1.85836L5.17849 2.15665ZM6.49182 2.82403L6.49435 2.82646L6.70193 2.60987L6.6994 2.60745L6.49182 2.82403ZM6.49344 2.82558C6.7637 3.08903 7.24903 3.65552 7.67369 4.20888L7.91169 4.02624C7.48365 3.46849 6.98821 2.88894 6.70285 2.61076L6.49344 2.82558ZM7.67369 4.20888C7.8883 4.48854 8.09668 4.7768 8.26068 5.03322L8.51341 4.87158C8.34309 4.60528 8.12912 4.30958 7.91169 4.02624L7.67369 4.20888ZM8.26068 5.03321C8.34255 5.16124 8.41784 5.28823 8.4783 5.40693L8.74563 5.27078C8.67919 5.14035 8.59836 5.00443 8.51342 4.87159L8.26068 5.03321ZM8.4783 5.40694C8.5336 5.5155 8.59514 5.65251 8.62472 5.79377L8.91835 5.73228C8.88059 5.55194 8.80477 5.38688 8.74562 5.27077L8.4783 5.40694ZM8.6249 5.7946C8.78913 6.55735 8.4473 7.16066 8.2378 7.52641L8.49812 7.67552C8.7069 7.31103 9.10873 6.61646 8.91818 5.73145L8.6249 5.7946ZM8.23787 7.5263C8.22958 7.54074 8.2216 7.55472 8.21392 7.56816L8.47448 7.71686C8.48213 7.70345 8.48997 7.68973 8.49806 7.67563L8.23787 7.5263ZM8.21384 7.56832L8.19661 7.59858L8.45735 7.74696L8.47457 7.7167L8.21384 7.56832ZM8.19715 7.59764C8.13899 7.69813 8.06405 7.81146 7.99605 7.91426L8.24626 8.07977C8.31301 7.97886 8.39328 7.85767 8.45681 7.74791L8.19715 7.59764ZM7.9961 7.91417L7.98865 7.92542L8.23875 8.09111L8.2462 8.07986L7.9961 7.91417ZM7.9886 7.9255C7.84838 8.13746 7.71852 8.33592 7.63417 8.51631L7.90594 8.64338C7.97913 8.48684 8.09558 8.30753 8.2388 8.09102L7.9886 7.9255ZM7.63417 8.51633C7.60929 8.56955 7.59278 8.61221 7.5821 8.64513L7.86747 8.73769C7.87373 8.71837 7.88541 8.68728 7.90594 8.64336L7.63417 8.51633ZM7.5866 8.74977C7.87778 9.43917 8.28506 10.1203 8.77696 10.7562L9.01426 10.5727C8.53635 9.95482 8.14295 9.29593 7.86297 8.63304L7.5866 8.74977ZM8.78069 10.7609C9.36967 11.4629 10.2782 12.3374 10.7498 12.6695L10.9225 12.4242C10.4798 12.1124 9.59009 11.2589 9.01052 10.568L8.78069 10.7609ZM10.7498 12.6694C11.22 13.0007 11.7068 13.2789 12.2028 13.4933L12.3219 13.2179C11.8468 13.0126 11.3779 12.745 10.9226 12.4242L10.7498 12.6694ZM12.3044 13.4996C12.3434 13.4882 12.3946 13.4691 12.4591 13.4394L12.3335 13.167C12.279 13.1921 12.2419 13.2053 12.2203 13.2116L12.3044 13.4996ZM12.4593 13.4393C12.6481 13.3521 12.8536 13.2189 13.067 13.0793L12.9028 12.8282C12.685 12.9707 12.4985 13.0907 12.3334 13.167L12.4593 13.4393ZM13.0677 13.0788L13.0777 13.0722L12.9121 12.8221L12.9021 12.8287L13.0677 13.0788ZM13.077 13.0727C13.1728 13.0101 13.2769 12.9419 13.3689 12.8883L13.2179 12.6291C13.1179 12.6874 13.0069 12.7601 12.9128 12.8216L13.077 13.0727ZM13.369 12.8883L13.3743 12.8852L13.223 12.6261L13.2178 12.6292L13.369 12.8883ZM13.372 12.8865L13.4029 12.8692L13.2562 12.6075L13.2253 12.6248L13.372 12.8865ZM13.4032 12.869C13.4151 12.8623 13.4297 12.8541 13.4433 12.8464L13.2954 12.5854C13.2817 12.5932 13.2697 12.5999 13.2558 12.6077L13.4032 12.869ZM13.443 12.8466C13.8145 12.6371 14.4182 12.3001 15.1901 12.4619L15.2517 12.1683C14.36 11.9813 13.6668 12.3759 13.2957 12.5853L13.443 12.8466ZM15.1905 12.462L15.1923 12.4624L15.2532 12.1686L15.2513 12.1682L15.1905 12.462ZM15.2522 12.1684L15.2485 12.1677L15.1897 12.4619L15.1933 12.4626L15.2522 12.1684ZM15.1874 12.4614L15.1892 12.4618L15.2525 12.1685L15.2507 12.1682L15.1874 12.4614ZM15.1905 12.462C15.3296 12.4908 15.4657 12.5508 15.5744 12.6049L15.7082 12.3364C15.5923 12.2787 15.4287 12.205 15.2513 12.1683L15.1905 12.462ZM15.5743 12.6049C15.6922 12.6637 15.8188 12.737 15.947 12.8168L16.1056 12.5622C15.9728 12.4795 15.8375 12.401 15.7083 12.3365L15.5743 12.6049ZM15.9469 12.8168C16.2035 12.9767 16.4928 13.1799 16.7739 13.3896L16.9533 13.1492C16.6684 12.9366 16.3718 12.7281 16.1056 12.5622L15.9469 12.8168ZM16.7739 13.3896C17.3278 13.8027 17.8988 14.2775 18.1671 14.5482L18.3802 14.337C18.0961 14.0504 17.5111 13.5652 16.9533 13.1492L16.7739 13.3896ZM18.3797 14.3365L18.3774 14.3342L18.1653 14.5463L18.1676 14.5486L18.3797 14.3365ZM18.1653 14.5463L18.1701 14.5512L18.3822 14.339L18.3774 14.3342L18.1653 14.5463ZM18.3822 14.339L18.3798 14.3365L18.1676 14.5487L18.1701 14.5511L18.3822 14.339ZM18.1679 14.549C18.544 14.923 18.8071 15.3725 18.847 15.8877L19.1461 15.8646C19.099 15.2571 18.7896 14.7441 18.3795 14.3363L18.1679 14.549ZM18.847 15.8879L18.848 15.9013L19.1471 15.8777L19.1461 15.8643L18.847 15.8879ZM18.8477 15.8962L18.8483 15.9096L19.148 15.8961L19.1474 15.8828L18.8477 15.8962ZM18.8483 15.9091C18.8842 16.7713 18.3428 17.5809 17.8721 18.1282L18.0996 18.3238C18.5775 17.7681 19.189 16.8814 19.148 15.8966L18.8483 15.9091ZM17.8721 18.1282C17.3997 18.6774 16.8618 19.1174 16.5889 19.2898L16.7491 19.5434C17.0503 19.3532 17.6103 18.8926 18.0996 18.3238L17.8721 18.1282ZM16.5888 19.2898C16.5799 19.2955 16.575 19.2985 16.5727 19.2999C16.5722 19.3002 16.5721 19.3002 16.5723 19.3001C16.5724 19.3001 16.5735 19.2994 16.5752 19.2985C16.5761 19.298 16.5778 19.2971 16.5801 19.296C16.5812 19.2955 16.5829 19.2946 16.585 19.2937C16.5869 19.2929 16.5903 19.2914 16.5945 19.2899C16.5967 19.2891 16.5997 19.2881 16.6033 19.287C16.6068 19.286 16.612 19.2846 16.6186 19.2834C16.6214 19.2829 16.6276 19.282 16.631 19.2817C16.6351 19.2813 16.6443 19.281 16.6493 19.281C16.6556 19.2813 16.6697 19.2829 16.6774 19.2844C16.6871 19.2869 16.708 19.2946 16.719 19.3002C16.7317 19.3082 16.7555 19.3291 16.7662 19.342C16.7757 19.3565 16.7888 19.3869 16.7927 19.4024C16.7947 19.4159 16.7951 19.4405 16.794 19.4515C16.7926 19.4603 16.7887 19.4756 16.7864 19.4822C16.7844 19.4875 16.7803 19.4967 16.7782 19.5008C16.7764 19.5041 16.773 19.5099 16.7713 19.5126C16.7674 19.5186 16.7638 19.5232 16.7614 19.5261C16.7566 19.5319 16.7525 19.536 16.7505 19.538C16.7481 19.5403 16.7462 19.5421 16.7449 19.5432C16.7424 19.5454 16.7404 19.547 16.7394 19.5478C16.7375 19.5493 16.736 19.5504 16.7358 19.5506C16.7351 19.5511 16.735 19.5511 16.736 19.5504C16.7377 19.5492 16.7406 19.5473 16.744 19.545C16.7473 19.5428 16.7507 19.5406 16.7534 19.5389C16.7547 19.538 16.7557 19.5374 16.7563 19.537C16.7572 19.5365 16.7564 19.537 16.7547 19.5379C16.7542 19.5382 16.7533 19.5387 16.7522 19.5394C16.7511 19.5399 16.7492 19.5409 16.7467 19.5422C16.7454 19.5428 16.7436 19.5436 16.7413 19.5446C16.7392 19.5455 16.7358 19.547 16.7315 19.5485C16.7293 19.5493 16.7263 19.5503 16.7229 19.5513C16.7195 19.5522 16.7147 19.5535 16.7088 19.5546C16.7033 19.5556 16.6944 19.5569 16.6833 19.5571C16.6785 19.557 16.6679 19.5564 16.6621 19.5558C16.6552 19.5547 16.64 19.5512 16.6319 19.5486C16.6224 19.5449 16.6027 19.5346 16.5927 19.5279C16.5822 19.5194 16.5631 19.4991 16.5549 19.4873C16.5479 19.475 16.5378 19.4496 16.5346 19.4369C16.5328 19.4256 16.5316 19.4045 16.5321 19.3949C16.533 19.3869 16.5356 19.3725 16.5373 19.3661C16.5389 19.3609 16.5423 19.3515 16.5441 19.3473C16.5482 19.3377 16.5526 19.3303 16.5556 19.3258C16.5586 19.321 16.5615 19.3172 16.5636 19.3146C16.5657 19.3118 16.5677 19.3095 16.5692 19.3078C16.5721 19.3045 16.5747 19.3019 16.5763 19.3004C16.5794 19.2973 16.582 19.295 16.5831 19.294C16.5845 19.2929 16.5856 19.292 16.5862 19.2915C16.5869 19.291 16.5873 19.2906 16.5876 19.2903C16.5879 19.2901 16.5881 19.29 16.5881 19.29C16.5882 19.2899 16.588 19.29 16.5875 19.2904C16.5864 19.2913 16.5845 19.2926 16.5817 19.2946L16.7562 19.5386C16.7597 19.5361 16.7629 19.5338 16.7656 19.5318C16.7669 19.5308 16.7684 19.5298 16.7698 19.5287C16.7711 19.5277 16.7729 19.5263 16.7749 19.5247C16.7759 19.5239 16.7774 19.5227 16.779 19.5213C16.7804 19.52 16.7833 19.5176 16.7866 19.5143C16.7882 19.5127 16.7909 19.51 16.7939 19.5066C16.7954 19.5049 16.7974 19.5026 16.7995 19.4998C16.8017 19.4971 16.8045 19.4933 16.8076 19.4885C16.8106 19.4839 16.815 19.4766 16.8192 19.4669C16.8209 19.4627 16.8243 19.4533 16.8259 19.4481C16.8276 19.4417 16.8302 19.4273 16.8311 19.4193C16.8316 19.4097 16.8305 19.3886 16.8286 19.3773C16.8255 19.3646 16.8154 19.3392 16.8084 19.3269C16.8001 19.3151 16.781 19.2947 16.7705 19.2862C16.7605 19.2795 16.7408 19.2692 16.7313 19.2655C16.7231 19.2629 16.708 19.2594 16.7011 19.2583C16.6953 19.2577 16.6847 19.2571 16.6798 19.2571C16.6687 19.2572 16.6598 19.2586 16.6542 19.2596C16.6484 19.2607 16.6435 19.2619 16.6401 19.2629C16.6366 19.2639 16.6337 19.2649 16.6314 19.2657C16.627 19.2673 16.6235 19.2687 16.6213 19.2697C16.619 19.2707 16.617 19.2716 16.6156 19.2723C16.6129 19.2736 16.6106 19.2748 16.6093 19.2755C16.6078 19.2763 16.6066 19.277 16.6056 19.2776C16.6023 19.2795 16.5992 19.2814 16.5974 19.2825C16.5952 19.2839 16.593 19.2853 16.5909 19.2867C16.5866 19.2894 16.582 19.2925 16.5776 19.2954C16.5733 19.2983 16.5688 19.3013 16.5649 19.304C16.5631 19.3053 16.5607 19.307 16.5583 19.3087C16.5571 19.3096 16.555 19.3111 16.5525 19.3131C16.5514 19.314 16.5491 19.3158 16.5465 19.3182C16.5451 19.3194 16.543 19.3213 16.5406 19.3236C16.5386 19.3256 16.5344 19.3298 16.5296 19.3356C16.5272 19.3386 16.5235 19.3432 16.5196 19.3493C16.518 19.3519 16.5145 19.3578 16.5127 19.3611C16.5107 19.3651 16.5065 19.3744 16.5045 19.3797C16.5022 19.3863 16.4983 19.4016 16.4969 19.4103C16.4958 19.4213 16.4962 19.446 16.4982 19.4595C16.5021 19.475 16.5152 19.5054 16.5247 19.5199C16.5354 19.5329 16.5592 19.5537 16.5719 19.5617C16.5829 19.5673 16.6038 19.5751 16.6135 19.5775C16.6212 19.579 16.6353 19.5806 16.6416 19.5809C16.6467 19.581 16.6559 19.5806 16.66 19.5803C16.6634 19.5799 16.6696 19.579 16.6725 19.5785C16.679 19.5773 16.6843 19.5759 16.6878 19.5749C16.6914 19.5738 16.6944 19.5728 16.6966 19.572C16.701 19.5704 16.7044 19.569 16.7064 19.5681C16.7086 19.5671 16.7104 19.5662 16.7117 19.5656C16.7142 19.5644 16.7163 19.5633 16.7175 19.5626C16.72 19.5613 16.7221 19.56 16.7234 19.5593C16.7249 19.5584 16.7264 19.5576 16.7277 19.5567C16.7328 19.5537 16.7399 19.5492 16.7491 19.5434L16.5888 19.2898ZM16.5817 19.2946C15.5023 20.0667 14.1385 19.9849 12.6997 19.3373L12.5765 19.6109C14.0638 20.2802 15.5536 20.3988 16.7562 19.5386L16.5817 19.2946ZM12.6997 19.3374C12.6954 19.3354 12.6936 19.3346 12.6932 19.3344C12.6931 19.3344 12.6934 19.3345 12.6939 19.3347C12.6941 19.3349 12.6957 19.3356 12.6978 19.3367C12.6987 19.3372 12.7012 19.3385 12.7044 19.3404C12.7059 19.3413 12.7089 19.3432 12.7127 19.3457C12.7146 19.347 12.7174 19.3491 12.7208 19.3517C12.7222 19.3529 12.7254 19.3555 12.7271 19.357C12.7291 19.3589 12.7336 19.3632 12.736 19.3656C12.739 19.3689 12.7456 19.3767 12.7491 19.3813C12.7535 19.3878 12.7627 19.4043 12.7671 19.4143C12.772 19.429 12.7775 19.465 12.7766 19.486C12.7716 19.5108 12.7501 19.5557 12.7343 19.5746C12.7194 19.5878 12.6903 19.6055 12.677 19.6108C12.6672 19.6139 12.6501 19.6175 12.6428 19.6184C12.6373 19.6189 12.6277 19.6192 12.6235 19.6192C12.6202 19.619 12.6144 19.6186 12.6117 19.6184C12.6059 19.6178 12.6012 19.6169 12.5984 19.6164C12.5954 19.6158 12.5929 19.6152 12.5912 19.6147C12.5877 19.6139 12.5851 19.6131 12.5836 19.6126C12.5806 19.6117 12.5783 19.6109 12.5774 19.6106C12.5763 19.6102 12.5754 19.6098 12.5749 19.6096C12.5739 19.6093 12.5731 19.609 12.573 19.6089C12.5725 19.6087 12.5724 19.6087 12.5729 19.6089C12.5738 19.6092 12.5752 19.6098 12.5768 19.6106C12.5785 19.6113 12.58 19.6119 12.5812 19.6124C12.5814 19.6126 12.5817 19.6127 12.5818 19.6127C12.582 19.6128 12.582 19.6128 12.582 19.6128C12.582 19.6128 12.582 19.6128 12.5819 19.6128C12.5818 19.6127 12.5817 19.6127 12.5815 19.6126C12.5812 19.6125 12.5804 19.612 12.5792 19.6115C12.5786 19.6112 12.5775 19.6106 12.5762 19.6099C12.5752 19.6094 12.5724 19.6079 12.5689 19.6058C12.5672 19.6048 12.5638 19.6027 12.5597 19.5999C12.5576 19.5984 12.5545 19.5961 12.5508 19.5931C12.5492 19.5918 12.5458 19.5888 12.544 19.5871C12.5418 19.585 12.537 19.5802 12.5345 19.5774C12.5313 19.5738 12.5245 19.5651 12.521 19.5599C12.5166 19.5529 12.5078 19.5352 12.5038 19.5246C12.4997 19.5098 12.4961 19.4745 12.4978 19.4545C12.5031 19.4321 12.5231 19.3915 12.5372 19.3741C12.5506 19.3616 12.5774 19.3439 12.5899 19.3382C12.5994 19.3347 12.6164 19.3302 12.6238 19.3289C12.6294 19.3282 12.6394 19.3274 12.6437 19.3273C12.6472 19.3273 12.6535 19.3274 12.6563 19.3276C12.6626 19.328 12.6676 19.3288 12.6707 19.3293C12.674 19.3298 12.6767 19.3304 12.6786 19.3308C12.6823 19.3317 12.6853 19.3325 12.6869 19.3329C12.6902 19.3339 12.6927 19.3347 12.6937 19.335C12.6959 19.3358 12.6975 19.3364 12.6978 19.3365C12.6987 19.3368 12.699 19.337 12.6982 19.3366C12.6975 19.3363 12.6964 19.3359 12.6947 19.3352L12.5814 19.613C12.5835 19.6139 12.5854 19.6146 12.587 19.6153C12.5885 19.6158 12.5904 19.6166 12.5925 19.6174C12.5933 19.6177 12.5954 19.6185 12.5979 19.6193C12.5991 19.6197 12.6017 19.6206 12.6051 19.6216C12.6068 19.622 12.6098 19.6229 12.6135 19.6237C12.6155 19.6241 12.6182 19.6247 12.6215 19.6252C12.6246 19.6257 12.6296 19.6265 12.6359 19.6269C12.6387 19.6271 12.645 19.6273 12.6485 19.6272C12.6528 19.6271 12.6628 19.6263 12.6684 19.6256C12.6758 19.6243 12.6928 19.6198 12.7023 19.6163C12.7149 19.6106 12.7417 19.5929 12.755 19.5804C12.7692 19.563 12.7892 19.5224 12.7944 19.5C12.7961 19.48 12.7926 19.4448 12.7884 19.4299C12.7845 19.4193 12.7757 19.4016 12.7713 19.3946C12.7677 19.3894 12.7609 19.3807 12.7578 19.3771C12.7552 19.3743 12.7504 19.3695 12.7482 19.3674C12.7464 19.3657 12.743 19.3627 12.7414 19.3614C12.7377 19.3584 12.7346 19.3561 12.7325 19.3546C12.7284 19.3517 12.725 19.3496 12.7232 19.3486C12.7197 19.3464 12.7168 19.3449 12.7156 19.3443C12.7142 19.3436 12.713 19.343 12.7122 19.3426C12.7096 19.3413 12.7073 19.3402 12.7064 19.3398C12.7051 19.3392 12.7039 19.3387 12.7027 19.3382C12.7004 19.3372 12.6979 19.336 12.6955 19.335C12.6932 19.334 12.6907 19.3329 12.6884 19.332C12.6873 19.3316 12.6859 19.331 12.6844 19.3304C12.6837 19.3301 12.6826 19.3296 12.6812 19.3291C12.6805 19.3288 12.6794 19.3285 12.6782 19.328C12.6771 19.3276 12.6747 19.3268 12.6717 19.3258C12.6701 19.3254 12.6674 19.3246 12.664 19.3237C12.6622 19.3233 12.6597 19.3227 12.6567 19.3221C12.6539 19.3215 12.6492 19.3207 12.6433 19.32C12.6407 19.3198 12.6348 19.3194 12.6315 19.3193C12.6274 19.3192 12.6177 19.3195 12.6123 19.32C12.605 19.3209 12.5878 19.3246 12.5781 19.3276C12.5648 19.333 12.5356 19.3507 12.5208 19.3638C12.505 19.3827 12.4834 19.4276 12.4785 19.4524C12.4776 19.4734 12.483 19.5094 12.4879 19.5241C12.4923 19.5342 12.5015 19.5506 12.506 19.5571C12.5095 19.5617 12.516 19.5696 12.519 19.5728C12.5215 19.5753 12.5259 19.5796 12.528 19.5814C12.5297 19.5829 12.5328 19.5856 12.5343 19.5867C12.5377 19.5894 12.5405 19.5915 12.5424 19.5928C12.5462 19.5953 12.5493 19.5972 12.5508 19.5981C12.5541 19.6001 12.5567 19.6015 12.5577 19.602C12.5601 19.6033 12.562 19.6042 12.5628 19.6046C12.5638 19.6051 12.5648 19.6055 12.5656 19.6059C12.5683 19.6072 12.5721 19.6089 12.5765 19.6109L12.6997 19.3374ZM12.6947 19.3352C11.1539 18.7075 9.36678 17.4232 7.68076 15.9128L7.48059 16.1363C9.17626 17.6553 10.9936 18.9662 12.5815 19.613L12.6947 19.3352ZM7.68077 15.9128C7.0792 15.3739 5.92135 14.2387 5.56085 13.826L5.33491 14.0234C5.7069 14.4492 6.87488 15.5936 7.48059 16.1363L7.68077 15.9128ZM5.33689 14.0256C5.33981 14.0288 5.343 14.0323 5.34633 14.0358L5.56427 13.8296C5.56267 13.828 5.56087 13.826 5.55887 13.8238L5.33689 14.0256ZM5.56712 13.8327L5.55169 13.8155L5.32804 14.0154L5.34347 14.0327L5.56712 13.8327ZM5.32625 14.0134C5.32887 14.0164 5.33212 14.0202 5.33555 14.0241L5.5602 13.8253C5.55822 13.823 5.55613 13.8206 5.55348 13.8175L5.32625 14.0134ZM5.55813 13.823C3.85731 11.9795 2.38768 9.96364 1.67841 8.28444L1.40205 8.40117C2.13084 10.1266 3.62688 12.1721 5.33763 14.0264L5.55813 13.823ZM1.67844 8.28449C1.67751 8.28231 1.67681 8.28064 1.6763 8.2794C1.67604 8.27878 1.67585 8.27831 1.67571 8.27797C1.67564 8.27779 1.67559 8.27767 1.67555 8.27758C1.67551 8.27748 1.6755 8.27744 1.6755 8.27745C1.6755 8.27746 1.67553 8.27753 1.67558 8.27767C1.67564 8.2778 1.67573 8.27804 1.67586 8.27837C1.67597 8.27867 1.6767 8.28054 1.67757 8.28312C1.67794 8.2842 1.67902 8.28738 1.68016 8.29155C1.68071 8.29355 1.68182 8.29772 1.68285 8.30311C1.68337 8.30585 1.68412 8.31017 1.68468 8.31552C1.68491 8.31787 1.68528 8.32307 1.68541 8.32593C1.68549 8.32948 1.68537 8.33752 1.68511 8.342C1.68458 8.3478 1.68248 8.36116 1.68074 8.36867C1.67778 8.37871 1.66806 8.40138 1.66082 8.41362C1.64949 8.42869 1.6186 8.45606 1.59898 8.46709C1.57752 8.47518 1.53562 8.48118 1.51614 8.47993C1.50141 8.47726 1.47678 8.46921 1.46685 8.46455C1.45975 8.46064 1.44787 8.45292 1.44302 8.44927C1.43938 8.44633 1.43311 8.44079 1.43046 8.43825C1.42836 8.43615 1.42466 8.43224 1.42304 8.43043C1.41938 8.42628 1.41664 8.42271 1.41495 8.42042C1.41316 8.418 1.41173 8.41592 1.41072 8.4144C1.40875 8.41144 1.40728 8.40901 1.40645 8.40761C1.4048 8.40481 1.40361 8.40258 1.40312 8.40166C1.40252 8.40052 1.40206 8.39962 1.40179 8.39909C1.40127 8.39804 1.40091 8.3973 1.40081 8.39709C1.40059 8.39663 1.40056 8.39655 1.40079 8.39705C1.4012 8.39795 1.40188 8.39945 1.40268 8.40126C1.40347 8.40304 1.4042 8.40471 1.40472 8.40592C1.40498 8.40653 1.4051 8.40681 1.40509 8.4068C1.40509 8.40679 1.40499 8.40655 1.40482 8.40614C1.4047 8.40584 1.40429 8.40482 1.40376 8.40339C1.40349 8.40268 1.40302 8.40139 1.40245 8.39975C1.40204 8.39854 1.40083 8.395 1.39957 8.39035C1.39897 8.38813 1.39776 8.38347 1.39669 8.37747C1.39615 8.37441 1.39539 8.36958 1.3949 8.36362C1.3947 8.36102 1.39444 8.35523 1.39439 8.35205C1.39442 8.34813 1.39487 8.33928 1.39534 8.33435C1.39619 8.32807 1.39916 8.31372 1.40147 8.30572C1.40519 8.29537 1.41668 8.27259 1.4249 8.26059C1.43683 8.24672 1.46756 8.22245 1.48626 8.213C1.50577 8.20634 1.54368 8.20129 1.56138 8.20225C1.57504 8.20445 1.59837 8.21134 1.60804 8.21546C1.6151 8.21901 1.62711 8.22617 1.63212 8.22962C1.63591 8.23245 1.64251 8.23784 1.64534 8.24035C1.64758 8.24243 1.65157 8.24636 1.65332 8.24818C1.65732 8.2524 1.66032 8.25608 1.6622 8.25847C1.66419 8.26099 1.66577 8.26316 1.6669 8.26476C1.6691 8.26788 1.67074 8.27046 1.67167 8.27196C1.67353 8.27495 1.67486 8.27733 1.67541 8.27833C1.67661 8.28049 1.67743 8.28212 1.67759 8.28243C1.67805 8.28333 1.67818 8.28363 1.67774 8.28272C1.6774 8.28199 1.67684 8.28082 1.67602 8.27907L1.40445 8.40654C1.40548 8.40874 1.40642 8.41072 1.40725 8.41246C1.408 8.41401 1.409 8.41608 1.41006 8.41818C1.41053 8.41909 1.41159 8.42117 1.41296 8.42365C1.4136 8.4248 1.415 8.42732 1.41692 8.4304C1.41788 8.43194 1.41955 8.43456 1.42177 8.43771C1.42291 8.43932 1.4245 8.44152 1.42649 8.44405C1.42838 8.44645 1.4314 8.45013 1.4354 8.45436C1.43716 8.45619 1.44115 8.46012 1.4434 8.46221C1.44623 8.46472 1.45283 8.47011 1.45663 8.47294C1.46163 8.4764 1.47364 8.48356 1.48072 8.4871C1.49038 8.49123 1.51371 8.49812 1.52738 8.50032C1.54508 8.50128 1.583 8.49623 1.6025 8.48957C1.6212 8.48012 1.65193 8.45584 1.66386 8.44197C1.67208 8.42997 1.68358 8.40719 1.6873 8.39684C1.68961 8.38884 1.69258 8.37448 1.69343 8.3682C1.69391 8.36327 1.69435 8.35441 1.69438 8.35049C1.69433 8.3473 1.69407 8.34151 1.69388 8.33891C1.69338 8.33293 1.69262 8.32809 1.69207 8.32502C1.691 8.31898 1.68978 8.31429 1.68917 8.31203C1.68789 8.3073 1.68665 8.30365 1.68619 8.3023C1.68558 8.30053 1.68504 8.29908 1.68471 8.29818C1.68356 8.29512 1.68245 8.29246 1.68206 8.29152C1.68147 8.29011 1.68087 8.2887 1.68034 8.28746C1.67926 8.28495 1.67805 8.28219 1.67692 8.27963C1.6758 8.2771 1.67457 8.27437 1.67346 8.27195C1.67293 8.27078 1.67222 8.26927 1.67147 8.2677C1.67111 8.26694 1.67053 8.26573 1.66981 8.26431C1.66945 8.26359 1.66891 8.26252 1.66823 8.26124C1.66767 8.26018 1.66642 8.25784 1.66471 8.25496C1.66386 8.25352 1.66237 8.25104 1.66038 8.24806C1.65936 8.24653 1.65792 8.24443 1.65612 8.242C1.65442 8.2397 1.65167 8.23612 1.648 8.23196C1.64638 8.23015 1.64268 8.22623 1.64058 8.22413C1.63792 8.22158 1.63166 8.21605 1.62801 8.2131C1.62316 8.20946 1.61128 8.20173 1.60417 8.19782C1.59424 8.19316 1.56961 8.18511 1.55487 8.18244C1.5354 8.18118 1.49349 8.18719 1.47204 8.19527C1.45241 8.20631 1.42152 8.23368 1.41018 8.24875C1.40294 8.26099 1.39323 8.28367 1.39026 8.29371C1.38853 8.30121 1.38642 8.31458 1.38589 8.32039C1.38564 8.32487 1.38551 8.33291 1.38559 8.33647C1.38572 8.33933 1.3861 8.34454 1.38632 8.34689C1.38689 8.35225 1.38764 8.35659 1.38816 8.35934C1.3892 8.36475 1.39032 8.36897 1.39087 8.37101C1.39205 8.37527 1.39316 8.37857 1.39358 8.37981C1.39456 8.38269 1.39545 8.38501 1.39579 8.3859C1.39625 8.38709 1.39668 8.38818 1.39702 8.38903C1.39828 8.39217 1.4 8.39629 1.40203 8.40112L1.67844 8.28449ZM1.67603 8.27909C1.33578 7.55386 1.15391 6.84965 1.15391 6.19092H0.853906C0.853906 6.90431 1.05058 7.65229 1.40444 8.40652L1.67603 8.27909ZM1.15391 6.19092C1.15391 5.53688 1.33844 4.9371 1.70307 4.41943L1.45781 4.24667C1.05594 4.8172 0.853906 5.4779 0.853906 6.19092H1.15391ZM1.45298 4.25397C1.44364 4.26903 1.43503 4.28355 1.4271 4.29737L1.68725 4.44676C1.69373 4.43549 1.70059 4.42393 1.7079 4.41213L1.45298 4.25397ZM1.68331 4.45324L1.72563 4.38748L1.47335 4.22513L1.43104 4.2909L1.68331 4.45324ZM1.47773 4.21871C1.47107 4.22797 1.46442 4.23729 1.45783 4.24665L1.70306 4.41946C1.70905 4.41096 1.71512 4.40243 1.72126 4.3939L1.47773 4.21871ZM1.70802 4.41195C1.79124 4.27737 1.93895 4.08947 2.10927 3.89692L1.88456 3.69815C1.71022 3.89526 1.5494 4.09806 1.45287 4.25416L1.70802 4.41195ZM2.10927 3.89692C2.30582 3.67472 2.5637 3.41114 2.86081 3.15803L2.66626 2.92967C2.35671 3.19338 2.08884 3.46722 1.88456 3.69815L2.10927 3.89692ZM2.73488 5.03249C2.735 5.03232 2.73614 5.03059 2.73785 5.02822C2.73864 5.02713 2.74055 5.02452 2.7432 5.0213C2.74324 5.02125 2.75276 5.00904 2.76786 4.99749C2.77251 4.99393 2.78118 4.9877 2.79314 4.98186C2.80348 4.9768 2.82784 4.96622 2.86088 4.96664C2.87872 4.96687 2.89968 4.97034 2.92112 4.9801C2.94287 4.99 2.9607 5.00436 2.97426 5.02065C2.99966 5.05116 3.00582 5.08282 3.00769 5.09697C3.00978 5.11283 3.00886 5.12557 3.00818 5.13215C3.00741 5.1395 3.00624 5.14543 3.00539 5.14922C3.00374 5.15665 3.00186 5.16236 3.00093 5.16509C2.99898 5.17079 2.99711 5.17511 2.99645 5.17661C2.99598 5.17768 2.99557 5.17859 2.99524 5.17931C2.99507 5.17968 2.99491 5.18002 2.99476 5.18033C2.99469 5.18049 2.99462 5.18064 2.99455 5.18078C2.99451 5.18085 2.99448 5.18092 2.99445 5.18099C2.99443 5.18103 2.99441 5.18106 2.9944 5.1811C2.99439 5.18112 2.99438 5.18114 2.99437 5.18115C2.99436 5.18117 2.99435 5.1812 2.85903 5.11647C2.72372 5.05175 2.7237 5.05177 2.72369 5.0518C2.72369 5.05181 2.72368 5.05183 2.72367 5.05185C2.72365 5.05188 2.72363 5.05192 2.72362 5.05195C2.72358 5.05202 2.72355 5.05209 2.72352 5.05217C2.72345 5.05231 2.72338 5.05246 2.7233 5.05262C2.72315 5.05294 2.72299 5.05328 2.72282 5.05366C2.72248 5.05438 2.72206 5.05531 2.72159 5.0564C2.72091 5.05794 2.71902 5.0623 2.71706 5.06805C2.71612 5.07079 2.71424 5.07653 2.71258 5.08397C2.71184 5.08728 2.70665 5.10883 2.71027 5.13627C2.71215 5.15043 2.71831 5.18209 2.74371 5.21261C2.7742 5.24922 2.81713 5.26611 2.8571 5.26662C2.89015 5.26703 2.91451 5.25645 2.92486 5.2514C2.93683 5.24555 2.9455 5.23931 2.95016 5.23575C2.9653 5.22416 2.97488 5.21189 2.975 5.21174C2.97774 5.20841 2.97977 5.20564 2.98072 5.20434C2.98274 5.20154 2.98435 5.19913 2.98515 5.19792L2.73488 5.03249ZM2.72882 5.04201L2.70938 5.076L2.96981 5.22493L2.98924 5.19094L2.72882 5.04201ZM2.71787 5.06281L2.69499 5.09458L2.93844 5.26989L2.96132 5.23812L2.71787 5.06281ZM2.69497 5.09461C2.47155 5.40503 2.35354 5.76636 2.35354 6.19089H2.65354C2.65354 5.82647 2.75338 5.52702 2.93846 5.26986L2.69497 5.09461ZM2.35354 6.19089C2.35354 6.63404 2.4779 7.1673 2.76774 7.7815L3.03904 7.65347C2.76292 7.06833 2.65354 6.57906 2.65354 6.19089H2.35354ZM2.7677 7.78141L2.77459 7.79604L3.04597 7.66817L3.03908 7.65355L2.7677 7.78141ZM2.77202 7.79028L2.77828 7.80515L3.05479 7.68879L3.04854 7.67392L2.77202 7.79028ZM2.77825 7.80508C3.40778 9.30319 4.77769 11.2091 6.44684 13.0172L6.66727 12.8137C5.00801 11.0163 3.66476 9.14033 3.05482 7.68886L2.77825 7.80508ZM6.44654 13.0168L6.45438 13.0254L6.67541 12.8225L6.66757 12.814L6.44654 13.0168ZM6.45198 13.0227L6.45957 13.0314L6.6854 12.8339L6.67781 12.8252L6.45198 13.0227ZM6.45918 13.0309C6.76231 13.3804 7.89038 14.49 8.48105 15.0191L8.68122 14.7957C8.09442 14.27 6.97695 13.17 6.68579 12.8343L6.45918 13.0309ZM8.48105 15.0191C10.1337 16.4996 11.8046 17.68 13.1586 18.2288L13.2713 17.9507C11.9647 17.4212 10.3243 16.2676 8.68123 14.7957L8.48105 15.0191ZM13.1592 18.229L13.1731 18.2346L13.2845 17.956L13.2707 17.9505L13.1592 18.229ZM13.1669 18.2319L13.1805 18.2381L13.3043 17.9648L13.2908 17.9587L13.1669 18.2319ZM13.1806 18.2381C14.437 18.8065 15.3047 18.7409 15.8978 18.3085L15.7211 18.0661C15.2504 18.4093 14.5096 18.5101 13.3042 17.9648L13.1806 18.2381ZM15.8978 18.3086L15.924 18.2894L15.7474 18.0469L15.7211 18.0661L15.8978 18.3086ZM15.9132 18.2966L15.9411 18.2798L15.786 18.023L15.7582 18.0398L15.9132 18.2966ZM15.9411 18.2798C16.0741 18.1994 16.5391 17.838 16.9625 17.3458L16.735 17.1502C16.3283 17.6231 15.8868 17.9621 15.786 18.023L15.9411 18.2798ZM16.9625 17.3458C17.1842 17.088 17.356 16.8385 17.4722 16.6097C17.5873 16.3832 17.6535 16.1663 17.6501 15.9769L17.3501 15.9823C17.3523 16.103 17.3087 16.2692 17.2048 16.4738C17.102 16.6762 16.9452 16.9058 16.735 17.1502L16.9625 17.3458ZM17.6492 15.963C17.633 15.8175 17.5513 15.6272 17.3205 15.3981L17.1091 15.611C17.3066 15.8071 17.3445 15.9375 17.351 15.9962L17.6492 15.963ZM17.3209 15.3985L17.3161 15.3937L17.1039 15.6058L17.1087 15.6106L17.3209 15.3985ZM17.3166 15.3943C17.1125 15.188 16.5964 14.7538 16.0566 14.3512L15.8773 14.5917C16.4131 14.9913 16.9151 15.415 17.1034 15.6053L17.3166 15.3943ZM16.0567 14.3512C15.7903 14.1525 15.5302 13.9706 15.3123 13.8348L15.1536 14.0894C15.3619 14.2191 15.6146 14.3957 15.8773 14.5917L16.0567 14.3512ZM15.3122 13.8347C15.2032 13.7668 15.1113 13.7145 15.0388 13.6783L14.9049 13.9468C14.9659 13.9772 15.0491 14.0243 15.1537 14.0894L15.3122 13.8347ZM15.0387 13.6783C14.9928 13.6554 14.9661 13.6448 14.9559 13.6408L14.8462 13.92C14.8498 13.9214 14.8683 13.9286 14.905 13.9468L15.0387 13.6783ZM14.9295 13.6331C14.63 13.5753 14.3878 13.6918 13.9903 13.915L14.1372 14.1766C14.5482 13.9458 14.6963 13.8936 14.8727 13.9277L14.9295 13.6331ZM13.9902 13.9151L13.97 13.9265L14.117 14.1879L14.1373 14.1766L13.9902 13.9151ZM13.9675 13.9279C13.906 13.964 13.8283 14.0146 13.7238 14.083L13.8881 14.334C13.9947 14.2643 14.0656 14.2182 14.1195 14.1865L13.9675 13.9279ZM13.7237 14.0831L13.7068 14.0942L13.8713 14.3451L13.8882 14.334L13.7237 14.0831ZM13.7069 14.0941C13.5101 14.223 13.2376 14.4011 12.9626 14.5282L13.0885 14.8005C13.3866 14.6627 13.6769 14.4723 13.8712 14.3451L13.7069 14.0941ZM12.9626 14.5282C12.7136 14.6433 12.2853 14.8044 11.863 14.6513L11.7607 14.9333C12.3048 15.1306 12.8324 14.9189 13.0885 14.8005L12.9626 14.5282ZM11.8634 14.6514L11.8474 14.6456L11.7444 14.9273L11.7604 14.9331L11.8634 14.6514ZM11.8528 14.6477L11.8372 14.6412L11.7233 14.9188L11.739 14.9252L11.8528 14.6477ZM11.8377 14.6415C11.2177 14.3843 10.622 14.0468 10.0588 13.6502L9.88607 13.8955C10.465 14.3032 11.08 14.6519 11.7228 14.9186L11.8377 14.6415ZM10.0588 13.6502C9.46964 13.2352 8.47861 12.2696 7.85141 11.5198L7.62129 11.7123C8.25809 12.4736 9.26805 13.4601 9.88607 13.8955L10.0588 13.6502ZM7.85137 11.5197L7.84251 11.5092L7.61247 11.7017L7.62133 11.7123L7.85137 11.5197ZM7.84605 11.5136L7.83758 11.5026L7.60046 11.6864L7.60893 11.6973L7.84605 11.5136ZM7.83755 11.5026C7.26037 10.7585 6.77668 9.94543 6.4355 9.10569L6.15757 9.21861C6.51029 10.0868 7.00864 10.9234 7.6005 11.6864L7.83755 11.5026ZM6.43543 9.1055L6.43139 9.09559L6.1536 9.20888L6.15764 9.21879L6.43543 9.1055ZM6.43314 9.1001L6.42942 9.09005L6.14812 9.19431L6.15184 9.20437L6.43314 9.1001ZM6.42929 9.08971C6.27303 8.6712 6.43491 8.24871 6.54739 8.00814L6.27562 7.88108C6.15991 8.12858 5.94578 8.65242 6.14824 9.19465L6.42929 9.08971ZM6.54739 8.00814C6.67211 7.74137 6.84776 7.47552 6.97637 7.28115L6.72619 7.1156C6.59934 7.3073 6.4112 7.5911 6.27562 7.88108L6.54739 8.00814ZM6.97609 7.28158C6.9803 7.27527 6.98439 7.26905 6.98815 7.26334L6.7376 7.09834C6.73378 7.10415 6.73014 7.10967 6.72647 7.11517L6.97609 7.28158ZM6.98798 7.2636C7.06376 7.14905 7.11913 7.06493 7.15756 6.99882L6.89817 6.84808C6.86511 6.90498 6.81532 6.98086 6.73777 7.09808L6.98798 7.2636ZM7.15814 6.99781L7.1716 6.97422L6.91106 6.8255L6.89759 6.84909L7.15814 6.99781ZM7.17164 6.97414C7.39892 6.57541 7.51129 6.34092 7.45446 6.05813L7.16034 6.11725C7.1918 6.27375 7.14713 6.41134 6.91101 6.82558L7.17164 6.97414ZM7.44642 6.03137C7.44246 6.02158 7.4319 5.99565 7.40933 5.95138L7.14206 6.08763C7.15977 6.12237 7.16678 6.14009 7.16837 6.14401L7.44642 6.03137ZM7.40936 5.95143C7.37277 5.87959 7.3196 5.78827 7.25007 5.67959L6.99736 5.84126C7.06378 5.94509 7.11142 6.02747 7.14203 6.08758L7.40936 5.95143ZM7.25008 5.67961C7.11135 5.46268 6.92532 5.20417 6.72198 4.93924L6.484 5.1219C6.68451 5.38314 6.86494 5.63421 6.99735 5.84124L7.25008 5.67961ZM6.72199 4.93925C6.3116 4.40448 5.86775 3.8913 5.65741 3.68592L5.44783 3.90057C5.64317 4.09131 6.07698 4.59153 6.48399 5.12189L6.72199 4.93925ZM5.65673 3.68526C5.429 3.46571 5.23454 3.37879 5.08488 3.35408L5.036 3.65007C5.11241 3.66269 5.25376 3.71348 5.44851 3.90124L5.65673 3.68526ZM5.05895 3.35209C4.85852 3.35408 4.63114 3.42705 4.39531 3.5485C4.15741 3.67101 3.90066 3.84815 3.63882 4.07121L3.83336 4.29958C4.08219 4.08761 4.3199 3.92477 4.53266 3.81521C4.74748 3.70458 4.92694 3.65341 5.06193 3.65207L5.05895 3.35209ZM3.63882 4.07121C3.3915 4.28189 3.17358 4.50442 3.0079 4.69173L3.23261 4.89049C3.39057 4.7119 3.59851 4.49964 3.83336 4.29958L3.63882 4.07121ZM3.00791 4.69172C2.92529 4.78511 2.8577 4.86746 2.80755 4.93261L3.04527 5.1156C3.0908 5.05647 3.15396 4.97938 3.2326 4.8905L3.00791 4.69172ZM2.80761 4.93253C2.76349 4.98977 2.74185 5.02213 2.73557 5.03147L2.98447 5.19895C2.98831 5.19324 3.00611 5.16641 3.04521 5.11568L2.80761 4.93253Z" fill="white" mask="url(#path-3-inside-1_436_7095)"/>
</svg>
