<svg width="20" height="20" viewBox="0 0 20 20" fill="none" xmlns="http://www.w3.org/2000/svg">
<g clip-path="url(#clip0_262_2314)">
<path d="M9.6 10.1504H9.88029H13.0773H13.17L13.2115 10.0675L13.8699 8.75062L13.8699 8.75062C14.0576 8.37521 14.5141 8.22307 14.8894 8.41078L14.8894 8.41078C15.2648 8.59849 15.417 9.0549 15.2293 9.4303C15.2293 9.4303 15.2293 9.4303 15.2293 9.4303L14.3194 11.2502L14.3194 11.2502C14.1906 11.5076 13.9275 11.6702 13.6397 11.6702H9.88029H9.6L9.75548 11.9035L10.6323 13.2186C10.6323 13.2186 10.6323 13.2186 10.6323 13.2186C10.865 13.5677 10.7707 14.0396 10.4215 14.2724L9.6 10.1504ZM9.6 10.1504L9.75548 9.91718M9.6 10.1504L9.75548 9.91718M9.75548 9.91718L10.6323 8.60207C10.6323 8.60207 10.6323 8.60206 10.6323 8.60206C10.865 8.25288 10.7707 7.78104 10.4215 7.54823C10.0723 7.31544 9.60046 7.40978 9.3676 7.759C9.3676 7.759 9.3676 7.75901 9.3676 7.75901L7.8179 10.0836L7.77337 10.1504H7.6931H5.4503C5.03059 10.1504 4.69038 10.4906 4.69038 10.9103C4.69038 11.33 5.03059 11.6702 5.4503 11.6702H7.6931H7.77337M9.75548 9.91718L7.77337 11.6702M7.77337 11.6702L7.8179 11.737M7.77337 11.6702L7.8179 11.737M7.8179 11.737L9.36759 14.0616M7.8179 11.737L9.36759 14.0616M9.36759 14.0616C9.60044 14.4108 10.0723 14.5052 10.4215 14.2725L9.36759 14.0616Z" fill="#000435" fill-opacity="0.6" stroke="white" stroke-width="0.3"/>
<path d="M9.24003 1.81081V1.96081H9.09003H6.36025H6.21025V1.81081C6.21025 1.39111 5.87003 1.05088 5.45032 1.05088C5.03061 1.05088 4.69039 1.39111 4.69039 1.81081V1.96081H4.54039C2.61311 1.96081 1.05068 3.52321 1.05068 5.45052V15.4597C1.05068 17.387 2.61311 18.9494 4.54039 18.9494H15.4595C17.3868 18.9494 18.9492 17.387 18.9492 15.4597V5.45052C18.9492 3.5232 17.3868 1.96081 15.4595 1.96081H15.3095V1.81081C15.3095 1.39111 14.9693 1.05088 14.5496 1.05088C14.1299 1.05088 13.7897 1.39111 13.7897 1.81081V1.96081H13.6397H10.9099H10.7599V1.81081C10.7599 1.39111 10.4197 1.05088 9.99996 1.05088C9.58025 1.05088 9.24003 1.39111 9.24003 1.81081ZM15.3095 3.63066V3.48066H15.4595C16.5475 3.48066 17.4294 4.3626 17.4294 5.45052V15.4597C17.4294 16.5477 16.5475 17.4296 15.4595 17.4296H4.54039C3.45244 17.4296 2.57053 16.5477 2.57053 15.4597V5.45052C2.57053 4.3626 3.45244 3.48066 4.54039 3.48066H4.69039V3.63066C4.69039 4.05036 5.03061 4.39059 5.45032 4.39059C5.87003 4.39059 6.21025 4.05036 6.21025 3.63066V3.48066H6.36025H9.09003H9.24003V3.63066C9.24003 4.05036 9.58025 4.39059 9.99996 4.39059C10.4197 4.39059 10.7599 4.05036 10.7599 3.63066V3.48066H10.9099H13.6397H13.7897V3.63066C13.7897 4.05036 14.1299 4.39059 14.5496 4.39059C14.9693 4.39059 15.3095 4.05036 15.3095 3.63066Z" fill="#000435" fill-opacity="0.6" stroke="white" stroke-width="0.3"/>
</g>
<defs>
<clipPath id="clip0_262_2314">
<rect width="20" height="20" fill="white" transform="matrix(-1 0 0 1 20 0)"/>
</clipPath>
</defs>
</svg>
