<svg width="20" height="20" viewBox="0 0 20 20" fill="none" xmlns="http://www.w3.org/2000/svg">
<path d="M18.0845 17.2001L14.1727 13.2891C15.3065 11.928 15.8719 10.1821 15.7512 8.41472C15.6305 6.64733 14.8331 4.9945 13.5249 3.80006C12.2166 2.60562 10.4982 1.96153 8.72719 2.00178C6.95615 2.04203 5.2688 2.76352 4.01616 4.01616C2.76352 5.2688 2.04203 6.95615 2.00178 8.72719C1.96153 10.4982 2.60562 12.2166 3.80006 13.5249C4.9945 14.8331 6.64733 15.6305 8.41472 15.7512C10.1821 15.8719 11.928 15.3065 13.2891 14.1727L17.2001 18.0845C17.2582 18.1425 17.3271 18.1886 17.403 18.22C17.4788 18.2514 17.5601 18.2676 17.6423 18.2676C17.7244 18.2676 17.8057 18.2514 17.8816 18.22C17.9574 18.1886 18.0264 18.1425 18.0845 18.0845C18.1425 18.0264 18.1886 17.9574 18.22 17.8816C18.2514 17.8057 18.2676 17.7244 18.2676 17.6423C18.2676 17.5601 18.2514 17.4788 18.22 17.403C18.1886 17.3271 18.1425 17.2582 18.0845 17.2001ZM3.26727 8.89227C3.26727 7.77975 3.59717 6.69221 4.21525 5.76719C4.83333 4.84216 5.71184 4.12119 6.73967 3.69545C7.76751 3.2697 8.89851 3.15831 9.98965 3.37535C11.0808 3.59239 12.0831 4.12812 12.8697 4.91479C13.6564 5.70146 14.1921 6.70374 14.4092 7.79489C14.6262 8.88603 14.5148 10.017 14.0891 11.0449C13.6633 12.0727 12.9424 12.9512 12.0174 13.5693C11.0923 14.1874 10.0048 14.5173 8.89227 14.5173C7.40093 14.5156 5.97115 13.9225 4.91662 12.8679C3.86209 11.8134 3.26892 10.3836 3.26727 8.89227Z" fill="#000435" fill-opacity="0.6"/>
</svg>
