<svg width="24" height="24" viewBox="0 0 24 24" fill="none" xmlns="http://www.w3.org/2000/svg">
<path d="M20.6243 3.37628C20.4627 3.21471 20.2608 3.09916 20.0397 3.04153C19.8185 2.98391 19.5859 2.98629 19.366 3.04843H19.3539L3.93035 7.72837C3.67929 7.80057 3.45617 7.94755 3.29072 8.14972C3.12526 8.35189 3.02533 8.59967 3.00421 8.86006C2.98309 9.12045 3.0418 9.38109 3.17251 9.60728C3.30322 9.83348 3.49974 10.0145 3.73589 10.1262L10.616 13.3846L13.8744 20.2647C13.9773 20.4851 14.1411 20.6714 14.3464 20.8016C14.5517 20.9319 14.79 21.0008 15.0332 21C15.0701 21 15.1071 20.9984 15.1441 20.9952C15.4035 20.9742 15.6504 20.8743 15.8515 20.709C16.0525 20.5437 16.1983 20.3208 16.269 20.0703L20.9458 4.64671C20.9458 4.64269 20.9458 4.63868 20.9458 4.63466C21.0087 4.41526 21.0121 4.18305 20.9556 3.9619C20.8991 3.74075 20.7848 3.53862 20.6243 3.37628ZM15.0404 19.7022L15.0364 19.7135L11.8736 13.0367L15.6696 9.23987C15.7851 9.11833 15.8485 8.95649 15.8463 8.78886C15.8442 8.62123 15.7766 8.46107 15.6581 8.34253C15.5396 8.22399 15.3794 8.15644 15.2118 8.1543C15.0441 8.15215 14.8823 8.21557 14.7608 8.33104L10.9639 12.1271L4.28633 8.96425H4.29758L19.7147 4.28591L15.0404 19.7022Z" fill="white"/>
</svg>
