<svg width="20" height="20" viewBox="0 0 20 20" fill="none" xmlns="http://www.w3.org/2000/svg">
<path d="M10 9.925C7.80142 9.925 6.075 8.19858 6.075 6C6.075 3.80142 7.80142 2.075 10 2.075C12.1986 2.075 13.925 3.80142 13.925 6C13.925 8.19858 12.1986 9.925 10 9.925ZM10 3.525C8.59858 3.525 7.525 4.59858 7.525 6C7.525 7.40142 8.59858 8.475 10 8.475C11.4014 8.475 12.475 7.40142 12.475 6C12.475 4.59858 11.4014 3.525 10 3.525Z" fill="#000435" fill-opacity="0.6" stroke="white" stroke-width="0.15"/>
<path d="M4.25017 12.8558L4.25045 12.8562L4.25575 12.8503C4.9598 12.068 5.97854 11.6751 7 11.6751H13.2C14.2215 11.6751 15.2402 12.068 15.9443 12.8503C16.656 13.6411 17.125 14.584 17.125 15.6001V17.2001C17.125 17.4231 17.051 17.603 16.927 17.7271C16.8029 17.8511 16.623 17.9251 16.4 17.9251C16.177 17.9251 15.9971 17.8511 15.873 17.7271C15.749 17.603 15.675 17.4231 15.675 17.2001V15.6001C15.675 14.9454 15.4305 14.2844 14.9332 13.8669C14.5157 13.3696 13.8547 13.1251 13.2 13.1251H7C6.34532 13.1251 5.68433 13.3696 5.26676 13.8669C4.76949 14.2844 4.525 14.9454 4.525 15.6001V17.2001C4.525 17.4231 4.45101 17.603 4.32697 17.7271C4.20293 17.8511 4.02296 17.9251 3.8 17.9251C3.57704 17.9251 3.39707 17.8511 3.27303 17.7271C3.14899 17.603 3.075 17.4231 3.075 17.2001V15.6001C3.075 14.5786 3.46789 13.5599 4.25017 12.8558Z" fill="#000435" fill-opacity="0.6" stroke="white" stroke-width="0.15"/>
</svg>
