<svg width="21" height="20" viewBox="0 0 21 20" fill="none" xmlns="http://www.w3.org/2000/svg">
<path d="M14.2446 16.8751C14.2446 17.0409 14.1788 17.1999 14.0616 17.3171C13.9444 17.4343 13.7854 17.5001 13.6196 17.5001H2.36965C2.20389 17.5001 2.04492 17.4343 1.92771 17.3171C1.8105 17.1999 1.74465 17.0409 1.74465 16.8751C1.74465 16.7094 1.8105 16.5504 1.92771 16.4332C2.04492 16.316 2.20389 16.2501 2.36965 16.2501H13.6196C13.7854 16.2501 13.9444 16.316 14.0616 16.4332C14.1788 16.5504 14.2446 16.7094 14.2446 16.8751ZM19.8587 7.27749C19.8424 7.36448 19.8077 7.447 19.7571 7.5196C19.7064 7.59219 19.641 7.6532 19.565 7.69859L8.04856 14.5736C7.56851 14.8551 7.02225 15.0039 6.46574 15.0048C5.67302 15.0039 4.9106 14.7001 4.33449 14.1556L4.32512 14.1462L1.51027 11.3908C1.36134 11.2493 1.24956 11.0734 1.1848 10.8785C1.12004 10.6836 1.1043 10.4757 1.13898 10.2733C1.17366 10.0709 1.25768 9.88009 1.38363 9.71785C1.50957 9.55562 1.67354 9.42691 1.86106 9.34312L2.09543 9.22827C2.24344 9.15561 2.41417 9.14438 2.57043 9.19702L4.77824 9.94234L6.35402 8.98921L4.64856 7.33374C4.49518 7.19244 4.3796 7.01501 4.31233 6.81761C4.24506 6.62021 4.22826 6.40912 4.26343 6.20357C4.29861 5.99801 4.38466 5.80452 4.51374 5.64073C4.64282 5.47693 4.81083 5.34803 5.00246 5.26577L5.02746 5.25562L5.58606 5.0439C5.72689 4.99138 5.88194 4.99138 6.02277 5.0439L10.2368 6.59234L14.2657 4.18765C14.9078 3.80553 15.6659 3.66724 16.4015 3.79807C17.1371 3.92889 17.8011 4.32009 18.272 4.90015L18.2814 4.91187L19.7376 6.77827C19.792 6.84816 19.8309 6.9288 19.8518 7.01487C19.8727 7.10093 19.875 7.19045 19.8587 7.27749ZM18.3165 6.98843L17.3009 5.68609C17.0182 5.34028 16.6209 5.10736 16.181 5.02966C15.7412 4.95196 15.2881 5.03463 14.904 5.26265L10.6228 7.8189C10.5426 7.86644 10.4529 7.89559 10.36 7.90423C10.2672 7.91288 10.1736 7.90081 10.0861 7.8689L5.80715 6.29546L5.49465 6.41499L5.51106 6.43062L7.80481 8.6564C7.87331 8.72296 7.92564 8.80434 7.95779 8.89428C7.98994 8.98422 8.00105 9.08033 7.99026 9.17524C7.97947 9.27014 7.94708 9.36131 7.89556 9.44174C7.84405 9.52217 7.77478 9.58972 7.69309 9.63921L5.17668 11.1619C5.09883 11.2089 5.01167 11.2383 4.92126 11.2482C4.83085 11.258 4.73939 11.248 4.65324 11.2189L2.4134 10.4634L2.39856 10.4712L2.36965 10.4845C2.37341 10.4872 2.37682 10.4904 2.37981 10.4939L5.19231 13.2486C5.48582 13.5244 5.86081 13.6977 6.2611 13.7425C6.66138 13.7873 7.0654 13.7012 7.41262 13.497L18.3165 6.98843Z" fill="#000435" fill-opacity="0.6"/>
</svg>
