<svg width="20" height="20" viewBox="0 0 20 20" fill="none" xmlns="http://www.w3.org/2000/svg">
<path fill-rule="evenodd" clip-rule="evenodd" d="M8.51533 15.1951C8.65199 15.4162 8.89339 15.5508 9.15332 15.5508H10.5654C10.9797 15.5508 11.3154 15.215 11.3154 14.8008C11.3154 14.3866 10.9797 14.0508 10.5654 14.0508H10.3669L11.2363 12.312C11.3525 12.0795 11.3401 11.8034 11.2034 11.5823C11.0668 11.3612 10.8254 11.2266 10.5654 11.2266H9.15332C8.73911 11.2266 8.40332 11.5624 8.40332 11.9766C8.40332 12.3908 8.73911 12.7266 9.15332 12.7266H9.35191L8.4825 14.4654C8.36626 14.6979 8.37868 14.974 8.51533 15.1951Z" fill="#000435" fill-opacity="0.6"/>
<path fill-rule="evenodd" clip-rule="evenodd" d="M14.5186 15.5508C14.9328 15.5508 15.2686 15.215 15.2686 14.8008V14.7035H15.507C16.4672 14.7035 17.2455 13.9252 17.2455 12.965C17.2455 12.0049 16.4671 11.2266 15.507 11.2266H14.5186C14.1043 11.2266 13.7686 11.5624 13.7686 11.9766V14.8008C13.7686 15.215 14.1043 15.5508 14.5186 15.5508ZM15.2686 13.2035V12.7266H15.507C15.6388 12.7266 15.7455 12.8333 15.7455 12.965C15.7455 13.0968 15.6387 13.2035 15.507 13.2035H15.2686Z" fill="#000435" fill-opacity="0.6"/>
<path fill-rule="evenodd" clip-rule="evenodd" d="M12.542 15.5508C12.9562 15.5508 13.292 15.215 13.292 14.8008V11.9766C13.292 11.5624 12.9562 11.2266 12.542 11.2266C12.1278 11.2266 11.792 11.5624 11.792 11.9766V14.8008C11.792 15.215 12.1278 15.5508 12.542 15.5508Z" fill="#000435" fill-opacity="0.6"/>
<path fill-rule="evenodd" clip-rule="evenodd" d="M0.777493 3.20655C0.785553 2.79932 1.11819 2.47168 1.52734 2.47168H1.52738H17.343H17.343C17.345 2.47168 17.3471 2.47169 17.3491 2.4717C17.5242 2.4731 17.6851 2.53453 17.812 2.63642C17.8698 2.68273 17.9209 2.73768 17.9632 2.79982C18.0284 2.89557 18.0721 3.00722 18.0872 3.12775C18.0915 3.16248 18.0935 3.1973 18.093 3.23196V9.24976H18.4726C18.8869 9.24976 19.2226 9.58554 19.2226 9.99976V16.7779C19.2226 17.1921 18.8869 17.5279 18.4726 17.5279H7.17578C6.76157 17.5279 6.42578 17.1921 6.42578 16.7779V16.3982H1.52734C1.11313 16.3982 0.777344 16.0624 0.777344 15.6482V3.22168C0.777344 3.21662 0.777394 3.21158 0.777493 3.20655ZM2.27734 4.85232V14.8982H6.42578V9.99976C6.42578 9.58554 6.76157 9.24976 7.17578 9.24976H7.40768L2.27734 4.85232ZM11.4627 9.24976H16.593V4.85237L11.4627 9.24976ZM15.3156 3.97168H3.55482L9.43518 9.012L15.3156 3.97168ZM7.92579 15.6482L7.92578 15.6524V16.0279H17.7226V10.7498H17.3517L17.343 10.7498H7.92579V15.6482Z" fill="#000435" fill-opacity="0.6"/>
</svg>
